<?xml version="1.0" standalone="no"?>
<!DOCTYPE svg PUBLIC "-//W3C//DTD SVG 1.1//EN" "http://www.w3.org/Graphics/SVG/1.1/DTD/svg11.dtd" >
<svg>
<metadata>
Created by FontForge 20120731 at Thu Dec 26 03:42:38 2013
 By World Wide Web Server
Copyright 1988-1991 Adobe Systems Inc.
</metadata>
<defs>
<font id="HelveticaNeueLT-Black" horiz-adv-x="1368" >
  <font-face 
    font-family="HelveticaNeue LT 95 Black"
    font-weight="400"
    font-stretch="normal"
    units-per-em="2048"
    panose-1="2 11 5 0 0 0 0 0 0 0"
    ascent="1638"
    descent="-410"
    x-height="1063"
    cap-height="1462"
    bbox="-338 -475 2255 1951"
    underline-thickness="102"
    underline-position="-154"
    unicode-range="U+0001-E007"
  />
<missing-glyph horiz-adv-x="1024" 
d="M102 0h820v1049h-820v-1049zM119 16v1016h786v-1016h-786z" />
    <glyph glyph-name=".notdef" horiz-adv-x="1024" 
d="M102 0h820v1049h-820v-1049zM119 16v1016h786v-1016h-786z" />
    <glyph glyph-name=".notdef" unicode="&#x201f;" horiz-adv-x="1024" 
d="M102 0h820v1049h-820v-1049zM119 16v1016h786v-1016h-786z" />
    <glyph glyph-name=".notdef" unicode="&#x201b;" horiz-adv-x="1024" 
d="M102 0h820v1049h-820v-1049zM119 16v1016h786v-1016h-786z" />
    <glyph glyph-name=".notdef" horiz-adv-x="1024" 
d="M102 0h820v1049h-820v-1049zM119 16v1016h786v-1016h-786z" />
    <glyph glyph-name=".notdef" horiz-adv-x="1024" 
d="M102 0h820v1049h-820v-1049zM119 16v1016h786v-1016h-786z" />
    <glyph glyph-name=".notdef" horiz-adv-x="1024" 
d="M102 0h820v1049h-820v-1049zM119 16v1016h786v-1016h-786z" />
    <glyph glyph-name=".notdef" horiz-adv-x="1024" 
d="M102 0h820v1049h-820v-1049zM119 16v1016h786v-1016h-786z" />
    <glyph glyph-name=".notdef" horiz-adv-x="1024" 
d="M102 0h820v1049h-820v-1049zM119 16v1016h786v-1016h-786z" />
    <glyph glyph-name=".notdef" horiz-adv-x="1024" 
d="M102 0h820v1049h-820v-1049zM119 16v1016h786v-1016h-786z" />
    <glyph glyph-name=".notdef" horiz-adv-x="1024" 
d="M102 0h820v1049h-820v-1049zM119 16v1016h786v-1016h-786z" />
    <glyph glyph-name=".notdef" horiz-adv-x="1024" 
d="M102 0h820v1049h-820v-1049zM119 16v1016h786v-1016h-786z" />
    <glyph glyph-name=".notdef" horiz-adv-x="1024" 
d="M102 0h820v1049h-820v-1049zM119 16v1016h786v-1016h-786z" />
    <glyph glyph-name=".null" horiz-adv-x="0" 
 />
    <glyph glyph-name="nonmarkingreturn" horiz-adv-x="684" 
 />
    <glyph glyph-name="breve" horiz-adv-x="569" 
d="M498 1479q-15 -70 -76 -103q-62 -33 -131 -33q-66 0 -133 33q-31 19 -54 43q-24 25 -30 60h-160q25 -316 369 -314q151 0 258 80q106 78 116 234h-159v0z" />
    <glyph glyph-name="caron" horiz-adv-x="569" 
d="M702 1470h-301l-116 -155v0l-115 155h-301l248 -305h336z" />
    <glyph glyph-name="dotlessi" horiz-adv-x="645" 
d="M524 0v1063h-405v-1063h405z" />
    <glyph glyph-name="dotaccent" horiz-adv-x="569" 
d="M111 1175h348v267h-348v-267z" />
    <glyph glyph-name="hungarumlaut" horiz-adv-x="569" 
d="M-143 1165h225l324 305h-347zM317 1165h226l323 305h-346z" />
    <glyph glyph-name="ring" horiz-adv-x="569" 
d="M53 1364q0 -98 70 -162q63 -70 162 -70q98 0 163 70q64 68 66 162q-2 98 -66 164q-65 63 -163 65q-95 -2 -162 -65q-70 -66 -70 -164v0zM176 1364q0 45 35 76q33 28 74 30q45 -2 75 -30q29 -31 31 -76q-2 -41 -31 -74q-30 -35 -75 -35t-74 35q-35 29 -35 74v0z" />
    <glyph glyph-name="ogonek" horiz-adv-x="569" 
d="M336 -299q-12 -41 -72 -41q-72 0 -74 80q-2 51 39 113q39 59 138 147h-150q-33 -25 -80 -61q-45 -39 -100 -101q-60 -63 -62 -133q2 -84 78 -121q74 -35 170 -35q78 0 142 33q63 33 90 119h-119z" />
    <glyph glyph-name="space" unicode=" " horiz-adv-x="684" 
 />
    <glyph glyph-name="exclam" unicode="!" horiz-adv-x="645" 
d="M109 0h425v405h-425v-405zM534 1462h-425v-344l114 -592h199l112 592v344z" />
    <glyph glyph-name="quotedbl" unicode="&#x22;" horiz-adv-x="1063" 
d="M594 686h313v776h-313v-776zM158 686h313v776h-313v-776z" />
    <glyph glyph-name="numbersign" unicode="#" 
d="M778 815l-26 -197h-146l27 197h145zM248 0h272l53 379h146l-53 -379h272l53 379h158l33 239h-158l27 197h159l33 240h-160l52 370h-273l-51 -370h-145l51 370h-273l-51 -370h-174l-33 -240h174l-26 -197h-176l-33 -239h176z" />
    <glyph glyph-name="dollar" unicode="$" 
d="M637 969q-146 28 -146 110q0 60 48 80q41 14 98 14v-204zM743 549v0q80 -23 127 -53q43 -31 43 -82q-2 -58 -47 -88q-47 -31 -123 -37v260zM637 -238h106v203q322 6 463 154q72 69 105 153q28 82 28 166q0 88 -18 164q-10 37 -29 72q-20 33 -51 63q-59 62 -178 115
q-121 49 -320 92v229q78 -12 111 -43q33 -32 39 -110h391q-4 250 -162 364q-157 115 -379 113v164h-106v-164q-203 0 -371 -113q-176 -114 -180 -366q2 -170 104 -252q101 -84 271 -137q94 -29 176 -52v-288q-57 6 -90 28q-33 21 -51 50q-15 32 -21 63q-6 33 -8 57h-438
q6 -206 147 -360q141 -158 461 -162v-203z" />
    <glyph glyph-name="percent" unicode="%" horiz-adv-x="2087" 
d="M502 -53h225l840 1532h-226zM137 1053q2 -172 88 -279q86 -108 273 -110q188 2 276 110q86 107 84 279q2 176 -84 282q-88 105 -276 107q-187 -2 -273 -107q-86 -106 -88 -282v0zM403 1053q-2 75 13 141q14 67 82 70q36 0 57 -19q18 -18 27 -51q10 -66 10 -141
q0 -74 -10 -140q-9 -30 -27 -49q-21 -22 -57 -22q-68 2 -82 71q-15 66 -13 140v0zM1231 373q2 -172 88 -279q86 -108 272 -110q189 2 277 110q86 107 84 279q2 176 -84 282q-88 105 -277 107q-186 -2 -272 -107q-86 -106 -88 -282v0zM1497 373q-2 75 12 141q15 68 82 70
q37 0 58 -19q18 -18 26 -51q10 -66 10 -141q0 -74 -10 -140q-8 -30 -26 -49q-21 -22 -58 -22q-67 2 -82 71q-14 66 -12 140v0z" />
    <glyph glyph-name="ampersand" unicode="&#x26;" horiz-adv-x="1517" 
d="M633 1124q0 49 37 76q32 25 71 25q95 -4 99 -99q-2 -49 -35 -90q-37 -39 -82 -61q-31 35 -57 74q-33 38 -33 75v0zM774 377q-37 -35 -80 -60q-43 -28 -92 -28q-55 0 -94 39q-45 39 -45 98q2 55 49 96t92 62zM989 102l82 -102h479l-299 358q142 158 172 355h-338
q-10 -58 -53 -111v0l-113 139q109 58 189 156q78 96 80 221q-2 195 -131 289q-129 90 -338 90q-170 0 -297 -100q-133 -101 -137 -279q2 -153 114 -266q-125 -62 -221 -162q-102 -102 -104 -250q2 -215 145 -342q137 -131 352 -133q232 -4 418 137v0z" />
    <glyph glyph-name="quotesingle" unicode="'" horiz-adv-x="606" 
d="M147 686h314v776h-314v-776z" />
    <glyph glyph-name="parenleft" unicode="(" horiz-adv-x="645" 
d="M307 1497q-223 -444 -221 -928q-2 -465 221 -913h350q-186 479 -182 913q-4 453 182 928h-350z" />
    <glyph glyph-name="parenright" unicode=")" horiz-adv-x="645" 
d="M342 -344q217 436 217 913q0 484 -217 928h-354q184 -453 182 -928q2 -483 -182 -913h354z" />
    <glyph glyph-name="asterisk" unicode="*" horiz-adv-x="948" 
d="M590 1192v270h-225v-270v0l-256 88v0l-74 -215l262 -84l-174 -215l184 -146v0l164 234v0l162 -234v0l184 146l-164 215l262 84l-77 215v0l-248 -88v0z" />
    <glyph glyph-name="plus" unicode="+" horiz-adv-x="1229" 
d="M98 360h361v-360h313v360h360v314h-360v360h-313v-360h-361v-314z" />
    <glyph glyph-name="comma" unicode="," horiz-adv-x="684" 
d="M129 0h182q-4 -76 -53 -129q-51 -55 -129 -63v-179q31 0 78 4q43 2 98 21q137 49 195 166q55 117 55 264v321h-426v-405z" />
    <glyph glyph-name="hyphenminus" unicode="-" horiz-adv-x="833" 
d="M96 379h641v336h-641v-336z" />
    <glyph glyph-name="period" unicode="." horiz-adv-x="684" 
d="M129 0h426v405h-426v-405z" />
    <glyph glyph-name="slash" unicode="/" horiz-adv-x="872" 
d="M-2 -35h311l574 1532h-312z" />
    <glyph glyph-name="zero" unicode="0" 
d="M467 713q0 61 6 133q4 69 25 133q22 65 67 106t121 43q78 -2 123 -43q43 -41 63 -108q21 -66 27 -135q2 -72 2 -129q0 -58 -4 -127q-6 -70 -27 -135q-20 -66 -63 -107q-45 -47 -125 -47q-76 0 -119 47q-45 41 -65 107q-21 65 -25 137q-6 69 -6 125v0zM78 713
q0 -205 59 -344q58 -140 148 -226q90 -84 196 -120q107 -39 203 -39q100 0 205 39q106 36 196 120q90 86 148 226q57 139 57 344q0 209 -57 348q-58 141 -148 225q-90 86 -196 121q-107 35 -207 35q-96 0 -201 -35q-106 -35 -196 -121q-90 -84 -148 -225q-59 -139 -59 -348
v0z" />
    <glyph glyph-name="one" unicode="1" 
d="M571 0h426v1425h-336q-14 -172 -137 -243q-125 -72 -286 -66v-295h333v-821z" />
    <glyph glyph-name="two" unicode="2" 
d="M485 825q-4 135 47 213q48 78 168 80q76 0 123 -37q47 -41 49 -137q-2 -76 -67 -125q-29 -24 -62 -43q-34 -20 -63 -39q-139 -80 -275 -170q-139 -90 -231 -215q-108 -145 -102 -352h1235v348h-646v2q105 62 213 121q107 57 201 127t154 166q57 94 57 229
q-2 228 -160 340q-157 109 -422 109q-288 -2 -452 -160q-164 -160 -152 -457h385z" />
    <glyph glyph-name="three" unicode="3" 
d="M496 950q0 90 57 135q55 43 139 43q68 0 127 -26q57 -31 60 -99q-3 -79 -64 -104q-61 -27 -131 -25q-78 0 -119 9v-279q39 8 119 10q74 2 133 -24q55 -31 57 -123q-4 -164 -190 -160q-109 -2 -170 64q-57 55 -55 170h-389q-4 -43 8 -131q10 -88 65 -187q60 -98 191 -166
q133 -71 368 -73q174 2 293 47q117 45 183 112q67 70 96 148q26 76 26 141q-2 119 -34 186q-35 66 -80 95q-113 51 -119 53v4q6 -4 94 45q39 27 68 90q26 62 26 170q0 47 -26 111q-27 63 -92 118q-64 60 -170 99q-107 39 -263 39q-245 0 -415 -119q-168 -121 -178 -373h385z
" />
    <glyph glyph-name="four" unicode="4" 
d="M694 1030v0v-399h-348zM694 0h426v283h193v348h-193v794h-407l-652 -757v-385h633v-283z" />
    <glyph glyph-name="five" unicode="5" 
d="M1206 1425h-979l-147 -821h381q63 94 207 92q94 0 149 -51q53 -51 55 -147q-2 -84 -63 -136q-62 -55 -154 -55q-98 0 -161 47q-43 37 -58 94h-403q-4 -53 18 -129q23 -79 86 -155q68 -76 189 -127q122 -51 317 -53q311 2 475 143q164 139 164 358q-2 250 -135 369
q-133 115 -330 115q-80 0 -162 -17q-80 -18 -149 -67l-4 4l41 188h663v348z" />
    <glyph glyph-name="six" unicode="6" 
d="M696 692q97 -2 154 -55q53 -53 55 -133q0 -82 -57 -137q-58 -60 -152 -60q-84 0 -139 58q-55 55 -55 139q0 82 57 135q53 51 137 53v0zM1268 1044q-72 402 -537 398q-323 -4 -483 -221q-160 -216 -160 -560q-2 -270 143 -469q146 -202 465 -208q260 0 422 133t164 393
q-2 211 -133 334q-133 118 -344 121q-94 0 -174 -21q-82 -22 -156 -90v0q6 55 25 108q18 52 47 93q61 90 176 92q67 0 110 -25q48 -35 60 -78h375z" />
    <glyph glyph-name="seven" unicode="7" 
d="M1231 1425h-1100v-348h682q4 2 -35 -35q-39 -41 -139 -188q-201 -313 -250 -575q-51 -271 -41 -279h453q-8 262 84 553q90 293 346 541v331z" />
    <glyph glyph-name="eight" unicode="8" 
d="M455 436q2 107 71 148q68 36 160 36q96 0 160 -38q63 -41 65 -146q-2 -90 -75 -123q-33 -18 -74 -24q-39 -10 -80 -10q-80 0 -150 34q-32 19 -55 49q-22 29 -22 74v0zM113 1051q-2 -234 221 -299v-5q-84 -6 -178 -69q-45 -33 -74 -92q-33 -60 -33 -152q4 -254 203 -354
q188 -98 430 -96q231 -2 428 100q201 102 207 350q-2 135 -80 219q-78 82 -201 94v5q105 26 164 108q59 78 59 191q0 161 -139 274q-143 115 -438 117q-188 2 -371 -76q-88 -43 -141 -119q-57 -78 -57 -196v0zM477 1010q0 96 64 131q59 28 141 28q84 0 147 -28
q64 -31 66 -131q-2 -86 -70 -119q-65 -33 -145 -31q-76 0 -137 35q-64 33 -66 115v0z" />
    <glyph glyph-name="nine" unicode="9" 
d="M670 1118q88 -2 145 -55q53 -55 55 -144q-2 -86 -59 -137q-59 -53 -145 -53q-82 0 -142 55q-63 54 -63 138q2 88 65 141q62 53 144 55v0zM98 375q39 -207 189 -299q147 -92 348 -92q327 4 489 221q160 215 160 559q0 278 -141 475q-146 199 -459 203q-250 0 -420 -135
q-176 -136 -180 -398q2 -219 137 -334q133 -118 346 -118q183 -2 320 112l4 -4q-6 -43 -21 -92q-18 -49 -45 -94q-26 -43 -73 -70q-45 -30 -117 -30q-45 -3 -98 20q-50 27 -64 76h-375z" />
    <glyph glyph-name="colon" unicode=":" horiz-adv-x="684" 
d="M129 657h426v406h-426v-406zM129 0h426v405h-426v-405z" />
    <glyph glyph-name="semicolon" unicode=";" horiz-adv-x="684" 
d="M129 0h182q-4 -72 -51 -127q-49 -57 -131 -65v-179q31 0 78 4q43 2 98 21q137 49 195 166q55 117 55 264v321h-426v-405zM555 1063h-426v-406h426v406z" />
    <glyph glyph-name="less" unicode="&#x3c;" horiz-adv-x="1229" 
d="M1132 1051v0l-1034 -406v-258l1034 -403v0v329l-557 205l557 203v330z" />
    <glyph glyph-name="equal" unicode="=" horiz-adv-x="1229" 
d="M1132 922h-1034v-314h1034v314zM1132 428h-1034v-313h1034v313z" />
    <glyph glyph-name="greater" unicode="&#x3e;" horiz-adv-x="1229" 
d="M98 -16v0l1034 405v258l-1034 404v0v-330l557 -205l-557 -203v-329z" />
    <glyph glyph-name="question" unicode="?" horiz-adv-x="1175" 
d="M459 975q-6 71 26 123q31 49 103 51q116 -2 119 -105q-5 -65 -70 -100q-66 -35 -121 -59q-57 -33 -88 -80t-43 -101q-10 -51 -10 -98q-2 -47 -2 -82h379q-2 70 24 111q25 39 90 74q53 26 103 53q47 26 88 63q41 39 65 99q23 61 23 151q-2 72 -31 146q-31 71 -94 135
q-64 63 -166 102q-104 39 -254 39q-297 -4 -428 -164q-131 -155 -141 -358h428zM348 0h426v405h-426v-405z" />
    <glyph glyph-name="at" unicode="@" horiz-adv-x="1638" 
d="M655 684q0 82 56 143q51 58 127 60q65 -2 106 -43q41 -43 41 -113q-2 -80 -55 -137q-54 -64 -140 -64q-61 0 -96 47q-39 46 -39 107v0zM1274 1100h-195l-20 -84v0q-94 123 -250 121q-189 -2 -305 -140q-119 -137 -121 -346q0 -157 92 -260q90 -108 248 -110
q153 2 207 102h4q4 -51 37 -76q30 -26 80 -26q53 0 141 28q86 31 178 96q92 70 154 189q61 117 63 293q-2 268 -192 436q-193 170 -541 174q-346 0 -569 -199q-232 -198 -236 -569q4 -340 230 -549q219 -211 561 -215q438 2 651 328h-234q-73 -55 -170 -86q-98 -31 -247 -31
q-238 0 -406 150q-170 143 -174 403q2 248 170 401q162 154 418 156q233 0 379 -108q147 -113 149 -355q-2 -174 -59 -250q-60 -77 -119 -77q-29 0 -29 49q0 28 9 65z" />
    <glyph glyph-name="A" unicode="A" horiz-adv-x="1479" 
d="M600 522l141 451h4l131 -451h-276zM-16 0h452l66 209h465l61 -209h467l-533 1462h-440z" />
    <glyph glyph-name="B" unicode="B" horiz-adv-x="1517" 
d="M567 620h283q158 -2 158 -133q-3 -82 -52 -110q-51 -29 -125 -29h-264v272zM117 0h829q203 0 354 115q154 110 158 329q-2 162 -78 248q-73 84 -176 117q84 45 133 113q47 65 47 174q0 59 -16 122q-21 64 -72 119q-51 56 -141 90q-94 35 -238 35h-800v-1462zM567 1114
h238q71 0 112 -20q41 -25 41 -80q0 -68 -41 -95q-41 -26 -112 -26h-238v221z" />
    <glyph glyph-name="C" unicode="C" horiz-adv-x="1554" 
d="M1477 917q-60 564 -662 580q-342 -2 -539 -209q-200 -205 -202 -557q0 -330 194 -543q193 -219 547 -223q326 6 496 195q170 182 172 413h-443q-16 -104 -69 -172q-56 -71 -168 -71q-154 2 -217 127q-64 120 -62 274q-2 154 62 274q63 123 217 127q71 0 116 -22
q46 -25 70 -64q25 -34 37 -69q10 -37 12 -60h439z" />
    <glyph glyph-name="D" unicode="D" horiz-adv-x="1593" 
d="M117 0h651q752 14 747 733q2 287 -145 504q-152 219 -514 225h-739v-1462zM567 1087h144q122 0 194 -38q72 -41 107 -99q37 -57 47 -114q6 -58 6 -97q0 -49 -10 -112q-13 -62 -45 -119q-33 -55 -97 -94q-63 -39 -170 -39h-176v712z" />
    <glyph glyph-name="E" unicode="E" horiz-adv-x="1442" 
d="M117 0h1233v375h-783v182h690v348h-690v182h760v375h-1210v-1462z" />
    <glyph glyph-name="F" unicode="F" horiz-adv-x="1290" 
d="M117 0h450v557h584v348h-584v182h680v375h-1130v-1462z" />
    <glyph glyph-name="G" unicode="G" horiz-adv-x="1593" 
d="M1188 149l14 -149h285v805h-598v-314h198q-18 -79 -84 -120q-67 -41 -149 -41q-100 0 -166 41q-63 39 -100 98q-35 59 -49 123q-15 63 -15 115q0 40 4 110t31 141q27 74 90 125q62 47 174 49q82 -2 142 -49q57 -51 71 -133h432q-106 539 -673 547q-261 2 -484 -180
q-231 -185 -237 -600q2 -320 188 -531q184 -217 510 -221q61 0 121 12q59 13 110 33q56 25 103 60q45 34 82 79v0z" />
    <glyph glyph-name="H" unicode="H" horiz-adv-x="1554" 
d="M117 0h450v580h422v-580h451v1462h-451v-508h-422v508h-450v-1462z" />
    <glyph glyph-name="I" unicode="I" horiz-adv-x="682" 
d="M117 0h450v1462h-450v-1462z" />
    <glyph glyph-name="J" unicode="J" horiz-adv-x="1251" 
d="M1137 1462h-451v-942q2 -55 -10 -127q-15 -76 -99 -80q-86 2 -104 68q-18 63 -16 149v84h-406v-123q-6 -514 537 -526q549 -10 549 561v936z" />
    <glyph glyph-name="K" unicode="K" horiz-adv-x="1593" 
d="M129 0h451v432l124 137v0l361 -569h561l-616 891l530 571h-555l-401 -504h-4v504h-451v-1462z" />
    <glyph glyph-name="L" unicode="L" horiz-adv-x="1290" 
d="M117 0h1097v375h-647v1087h-450v-1462z" />
    <glyph glyph-name="M" unicode="M" horiz-adv-x="1933" 
d="M115 0h426v938h4l254 -938h336l253 938h5v-938h425v1462h-640l-209 -860h-4l-209 860h-641v-1462z" />
    <glyph glyph-name="N" unicode="N" horiz-adv-x="1554" 
d="M119 0h426v799h4l448 -799h439v1462h-426v-782h-5l-425 782h-461v-1462z" />
    <glyph glyph-name="O" unicode="O" horiz-adv-x="1630" 
d="M74 731q2 -340 207 -549q198 -213 534 -217q340 4 539 217q200 209 202 549q-2 342 -202 551q-199 211 -539 215q-336 -4 -534 -215q-205 -209 -207 -551v0zM524 731q0 123 31 203q16 41 35 71q18 29 39 50q45 45 94 63q49 14 92 14q94 3 190 -77q46 -41 74 -121
q27 -80 27 -203q0 -119 -27 -197q-28 -79 -74 -124q-43 -43 -94 -62q-53 -18 -96 -18q-92 -2 -186 80q-45 45 -74 124q-31 78 -31 197v0z" />
    <glyph glyph-name="P" unicode="P" horiz-adv-x="1442" 
d="M117 0h450v442h266q256 0 414 129t160 391q2 168 -119 330q-61 76 -164 123q-104 47 -254 47h-753v-1462zM567 1087h201q86 2 149 -20q62 -23 64 -121q0 -53 -19 -84q-22 -33 -57 -49q-72 -25 -164 -23h-174v297z" />
    <glyph glyph-name="Q" unicode="Q" horiz-adv-x="1630" 
d="M954 661l-202 -196l122 -127q-32 -8 -59 -8q-92 -2 -186 80q-45 45 -74 124q-31 78 -31 197q0 123 31 203q16 41 35 71q18 29 39 50q45 45 94 63q49 14 92 14q94 3 190 -77q46 -41 74 -121q27 -80 27 -203q0 -119 -29 -194v0l-123 124v0zM1358 -160l202 201l-174 178
q168 205 170 512q-2 342 -202 551q-199 211 -539 215q-336 -4 -534 -215q-205 -209 -207 -551q2 -340 207 -549q198 -213 534 -217q213 0 346 78v0l197 -203v0z" />
    <glyph glyph-name="R" unicode="R" horiz-adv-x="1517" 
d="M117 0h450v510h240q67 0 106 -23q39 -24 58 -65q20 -41 28 -90q9 -53 11 -107q6 -114 36 -225h451q-29 59 -37 158q-2 47 -6 88q-2 41 -6 67q-27 285 -215 365q112 47 168 147q51 103 51 219q-4 209 -141 314q-138 104 -336 104h-858v-1462zM567 1114h211q127 0 178 -37
q45 -37 45 -108q-2 -95 -67 -121q-62 -27 -131 -25h-236v291z" />
    <glyph glyph-name="S" unicode="S" horiz-adv-x="1366" 
d="M25 491q6 -174 81 -276q74 -106 181 -160q108 -53 213 -71q104 -19 168 -19q258 -2 462 111q207 112 213 393q0 100 -32 174q-35 70 -95 119q-59 49 -131 78q-73 30 -153 51q-160 39 -285 76q-59 20 -96 47q-39 24 -43 61q0 31 18 51q17 19 41 29q53 18 103 18
q73 0 133 -36q61 -35 53 -117h426q-16 264 -188 375q-177 104 -422 102q-234 0 -406 -113q-180 -116 -184 -370q0 -109 47 -178q45 -74 117 -119q71 -45 159 -74q84 -29 172 -53q187 -49 254 -80q64 -33 62 -88q-2 -78 -64 -107q-63 -28 -122 -26q-64 0 -125 22
q-64 21 -91 84q-16 41 -16 96h-450z" />
    <glyph glyph-name="T" unicode="T" 
d="M459 0h450v1087h410v375h-1270v-375h410v-1087z" />
    <glyph glyph-name="U" unicode="U" horiz-adv-x="1554" 
d="M1444 1462h-451v-796q0 -56 -2 -113q-4 -59 -24 -111q-19 -49 -62 -80q-45 -32 -125 -32t-125 32q-45 31 -65 80q-21 52 -25 111q-4 57 -4 113v796h-450v-897q0 -602 667 -600q666 -2 666 600v897z" />
    <glyph glyph-name="V" unicode="V" horiz-adv-x="1327" 
d="M1362 1462h-463l-235 -887h-5l-239 887h-455l436 -1462h504z" />
    <glyph glyph-name="W" unicode="W" horiz-adv-x="1972" 
d="M1986 1462h-444l-182 -915h-4l-172 915h-398l-176 -903h-4l-178 903h-442l397 -1462h440l154 891h4l158 -891h438z" />
    <glyph glyph-name="X" unicode="X" horiz-adv-x="1517" 
d="M-25 0h516l259 436v0l249 -436h543l-522 774l469 688h-500l-217 -397v0l-221 397h-528l481 -684z" />
    <glyph glyph-name="Y" unicode="Y" horiz-adv-x="1366" 
d="M453 0h450v539l524 923h-493l-254 -538v0l-244 538h-497l514 -923v-539z" />
    <glyph glyph-name="Z" unicode="Z" horiz-adv-x="1403" 
d="M49 0h1307v375h-719l686 760v327h-1235v-375h641l-680 -735v-352z" />
    <glyph glyph-name="bracketleft" unicode="[" horiz-adv-x="833" 
d="M78 -344h680v313h-316v1215h316v313h-680v-1841z" />
    <glyph glyph-name="backslash" unicode="\" horiz-adv-x="872" 
d="M301 1497h-311l573 -1532h311z" />
    <glyph glyph-name="bracketright" unicode="]" horiz-adv-x="833" 
d="M758 1497h-680v-313h315v-1215h-315v-313h680v1841z" />
    <glyph glyph-name="asciicircum" unicode="^" horiz-adv-x="1229" 
d="M133 678h313l168 387v0l168 -387h314l-357 747h-250z" />
    <glyph glyph-name="underscore" unicode="_" horiz-adv-x="1024" 
d="M0 -256h1024v102h-1024v-102z" />
    <glyph glyph-name="grave" unicode="`" horiz-adv-x="569" 
d="M215 1165h281l-205 305h-426z" />
    <glyph glyph-name="a" unicode="a" horiz-adv-x="1251" 
d="M758 379q-4 -82 -51 -123q-48 -43 -119 -43q-56 0 -90 31q-37 28 -37 67q0 97 137 115q84 16 160 51v-98zM1147 674q0 78 -4 153q-11 74 -56 133q-43 60 -149 95q-107 34 -295 34q-92 0 -186 -10q-97 -14 -176 -51q-78 -35 -127 -104q-50 -70 -58 -183h377q0 37 31 74
q30 33 121 35q53 0 92 -21q39 -22 41 -77q0 -48 -33 -68q-16 -8 -35 -14q-20 -6 -43 -13q-78 -10 -178 -22t-199 -45q-94 -31 -157 -101q-66 -69 -66 -194q2 -164 113 -244q104 -78 262 -78q100 0 190 29q86 27 152 98h4q-2 -49 14 -100h414q-33 53 -41 115q-8 63 -8 123
v436z" />
    <glyph glyph-name="b" unicode="b" horiz-adv-x="1327" 
d="M858 532q0 -100 -33 -178q-18 -37 -53 -59q-37 -27 -92 -27q-105 2 -143 86q-19 37 -27 84t-8 94q0 50 8 97t27 84q38 80 143 82q55 0 92 -23q35 -22 53 -59q33 -80 33 -181v0zM111 0h391v117h4q37 -51 102 -94q66 -48 209 -50q227 7 338 185q55 82 84 180q6 27 12 51
q4 25 6 49q4 25 7 49v50q0 96 -19 192q-20 96 -72 178q-51 82 -139 133q-88 47 -223 49q-191 -2 -291 -143h-4v516h-405v-1462z" />
    <glyph glyph-name="c" unicode="c" horiz-adv-x="1251" 
d="M1182 659q-25 222 -174 328q-152 102 -367 102q-246 -2 -405 -151q-168 -152 -170 -408q2 -256 170 -403q159 -152 405 -154q219 2 371 119q151 115 182 332h-387q-6 -64 -47 -109q-43 -47 -111 -47q-57 0 -90 25q-37 22 -55 59q-19 37 -25 84q-8 47 -8 94q0 50 8 99
q6 47 25 84q18 37 55 59q33 23 90 23q66 0 103 -35q38 -35 45 -101h385z" />
    <glyph glyph-name="d" unicode="d" horiz-adv-x="1327" 
d="M1216 1462h-405v-516h-4q-100 141 -291 143q-131 -2 -219 -49q-88 -51 -139 -133q-52 -82 -72 -178q-23 -96 -23 -192q0 -209 113 -379q111 -178 334 -185q76 2 127 15q53 12 86 35q33 22 57 47q25 22 41 47h4v-117h391v1462zM825 532q0 -100 -32 -178q-19 -37 -54 -59
q-37 -27 -92 -27q-104 2 -143 86q-19 37 -27 84t-8 94q0 50 8 97t27 84q39 80 143 82q55 0 92 -23q35 -22 54 -59q32 -80 32 -181v0z" />
    <glyph glyph-name="e" unicode="e" horiz-adv-x="1290" 
d="M455 651q28 176 209 178q81 0 129 -51q47 -51 49 -127h-387zM1231 440q6 641 -604 649q-254 -4 -406 -161q-153 -160 -155 -400q2 -266 172 -409q163 -144 423 -146q187 0 334 82q148 82 213 254h-379q-24 -37 -71 -55q-47 -21 -99 -21q-96 0 -145 60q-51 57 -61 147h778
z" />
    <glyph glyph-name="f" unicode="f" horiz-adv-x="797" 
d="M178 0h406v813h204v250h-213q-4 74 25 102q27 25 100 25q25 0 50 -4q24 -6 49 -11v279q-90 6 -183 8q-120 0 -204 -16q-84 -19 -150 -84q-55 -60 -72 -137q-16 -80 -12 -162h-166v-250h166v-813z" />
    <glyph glyph-name="g" unicode="g" horiz-adv-x="1290" 
d="M451 584q0 88 43 149q43 60 129 62q90 -2 133 -60q43 -57 43 -149q2 -95 -27 -174q-14 -39 -49 -62q-33 -26 -90 -26q-105 2 -144 86q-20 36 -28 84q-10 47 -10 90v0zM1194 1063h-406v-129h-4q-34 82 -110 121q-76 34 -168 34q-227 -4 -342 -149q-119 -143 -119 -358
q0 -217 113 -365q110 -151 342 -154q184 3 284 148h4v-98q0 -72 -28 -154q-19 -37 -49 -63q-33 -25 -82 -27q-37 2 -68 27q-31 22 -51 51q-14 20 -23 37h-401q35 -211 199 -283q161 -74 356 -72q186 2 299 54q113 47 166 122q57 78 74 166q14 88 14 166v926z" />
    <glyph glyph-name="h" unicode="h" horiz-adv-x="1327" 
d="M111 0h405v561q0 64 16 107q17 41 41 61q50 39 105 37q88 0 112 -57q23 -58 21 -152v-557h405v729q-2 184 -108 272q-107 88 -256 88q-127 0 -203 -38q-78 -39 -129 -103h-4v514h-405v-1462z" />
    <glyph glyph-name="i" unicode="i" horiz-adv-x="645" 
d="M119 0h405v1063h-405v-1063zM524 1462h-405v-284h405v284z" />
    <glyph glyph-name="j" unicode="j" horiz-adv-x="645" 
d="M-61 -344h190q78 2 160 14q84 11 141 58q64 53 80 137q14 82 14 207v991h-405v-952q0 -76 -25 -103q-26 -28 -88 -28h-67v-324zM524 1462h-405v-284h405v284z" />
    <glyph glyph-name="k" unicode="k" horiz-adv-x="1251" 
d="M119 0h405v307l72 78v0l217 -385h487l-438 661l379 402h-459l-258 -307v0v706h-405v-1462z" />
    <glyph glyph-name="l" unicode="l" horiz-adv-x="645" 
d="M119 0h405v1462h-405v-1462z" />
    <glyph glyph-name="m" unicode="m" horiz-adv-x="1972" 
d="M109 0h405v575q0 86 33 140q28 51 104 51q90 -2 115 -57q20 -54 18 -134v-575h406v575q0 86 33 140q28 51 104 51q90 -2 115 -57q20 -54 18 -134v-575h406v729q0 66 -17 131q-18 62 -61 115q-84 110 -287 114q-96 0 -164 -22q-65 -23 -108 -53q-43 -31 -64 -58
q-20 -24 -26 -32q-39 81 -119 125q-80 40 -168 40q-223 5 -348 -167h-4v141h-391v-1063z" />
    <glyph glyph-name="n" unicode="n" horiz-adv-x="1327" 
d="M111 0h405v561q0 64 16 107q17 41 41 61q50 39 105 37q88 0 112 -57q23 -58 21 -152v-557h405v729q-2 184 -108 272q-107 88 -256 88q-238 0 -346 -161h-4v135h-391v-1063z" />
    <glyph glyph-name="o" unicode="o" horiz-adv-x="1290" 
d="M1225 532q0 230 -140 390q-139 163 -440 167q-297 -4 -438 -167q-144 -160 -141 -390q-3 -227 141 -389q141 -166 438 -170q301 4 440 170q140 162 140 389v0zM819 532q2 -88 -29 -172q-18 -41 -51 -65q-37 -27 -94 -27q-55 0 -88 27q-37 24 -55 65q-17 41 -23 86
q-8 45 -8 86q-2 93 31 175q18 40 55 65q33 23 88 23q57 0 94 -23q33 -25 51 -65q19 -37 25 -84q4 -48 4 -91v0z" />
    <glyph glyph-name="p" unicode="p" horiz-adv-x="1327" 
d="M502 530q0 50 8 99q8 47 27 84q38 80 143 82q55 0 92 -23q35 -22 53 -59q33 -82 33 -183q0 -96 -33 -176q-18 -37 -53 -59q-37 -27 -92 -27q-105 2 -143 86q-19 37 -27 84t-8 92v0zM111 -344h405v461h4q100 -142 291 -144q262 7 362 185q52 82 72 178q19 96 19 190
q0 211 -109 383q-55 82 -137 131q-86 47 -201 49q-143 -2 -209 -45q-33 -18 -57 -45q-25 -24 -45 -53h-4v117h-391v-1407z" />
    <glyph glyph-name="q" unicode="q" horiz-adv-x="1327" 
d="M1216 1063h-391v-117h-4q-33 55 -98 98q-33 23 -86 35q-51 10 -127 10q-111 -2 -195 -49q-84 -49 -139 -131q-55 -80 -84 -180t-29 -203q0 -94 23 -190q20 -96 72 -178q51 -80 139 -131q88 -52 219 -54q191 2 291 144h4v-461h405v1407zM825 530q0 -96 -32 -176
q-19 -37 -54 -59q-37 -27 -92 -27q-104 2 -143 86q-19 37 -27 84t-8 92q0 50 8 99q8 47 27 84q39 80 143 82q55 0 92 -21q35 -22 54 -59q38 -76 32 -185v0z" />
    <glyph glyph-name="r" unicode="r" horiz-adv-x="909" 
d="M111 0h405v420q2 325 246 321q61 0 96 -6q35 -8 64 -20v358q-58 16 -119 16q-109 0 -178 -49q-72 -51 -121 -147h-4v170h-389v-1063z" />
    <glyph glyph-name="s" unicode="s" horiz-adv-x="1175" 
d="M1094 754q-5 104 -52 170q-47 67 -123 102q-159 66 -342 63q-81 0 -165 -14q-88 -14 -164 -53q-76 -35 -123 -103q-49 -67 -49 -167q0 -134 102 -213q103 -82 332 -121q139 -23 184 -45q41 -23 39 -68t-47 -63q-47 -19 -90 -19q-76 0 -109 31q-45 39 -49 94h-387
q15 -203 174 -289q160 -86 357 -86q202 -2 368 78q78 43 125 117q47 70 47 180q0 68 -18 117q-21 49 -58 82q-73 69 -178 98q-104 33 -202 49q-46 8 -86 17q-39 6 -68 16q-16 8 -31 23q-16 12 -16 32q0 51 41 68q37 14 82 14q51 0 90 -31q43 -26 47 -79h369z" />
    <glyph glyph-name="t" unicode="t" horiz-adv-x="833" 
d="M598 1386h-406v-323h-180v-250h180v-508q0 -106 35 -170q31 -63 84 -96q54 -29 117 -41q61 -10 127 -10q133 8 260 12v307q-45 -6 -92 -6q-74 0 -100 35q-27 33 -25 106v371h217v250h-217v323z" />
    <glyph glyph-name="u" unicode="u" horiz-adv-x="1327" 
d="M1216 1063h-405v-561q0 -62 -12 -101q-17 -43 -41 -63q-54 -43 -109 -41q-86 0 -110 59q-25 58 -23 150v557h-405v-729q2 -180 112 -271q107 -90 252 -90q238 2 346 162h4v-135h391v1063z" />
    <glyph glyph-name="v" unicode="v" horiz-adv-x="1139" 
d="M1159 1063h-414l-168 -647h-4l-165 647h-428l348 -1063h479z" />
    <glyph glyph-name="w" unicode="w" horiz-adv-x="1782" 
d="M1798 1063h-422l-147 -658h-8l-142 658h-379l-135 -658h-4l-158 658h-421l331 -1063h416l158 653h4l153 -653h416z" />
    <glyph glyph-name="x" unicode="x" horiz-adv-x="1139" 
d="M-29 0h445l149 260v0l156 -260h446l-377 559l334 504h-434l-119 -211v0l-116 211h-447l334 -504z" />
    <glyph glyph-name="y" unicode="y" horiz-adv-x="1139" 
d="M1169 1063h-419l-173 -610h-4l-170 610h-434l180 -490q29 -67 99 -254q33 -86 57 -155q23 -70 23 -94q0 -33 -9 -52q-12 -20 -30 -28q-23 -8 -56 -8q-34 -2 -67 -2h-94v-324h184q121 -2 233 16q113 21 195 115q47 64 80 143q31 80 53 152z" />
    <glyph glyph-name="z" unicode="z" horiz-adv-x="1139" 
d="M35 0h1061v295h-529l486 457v311h-973v-295h452l-497 -455v-313z" />
    <glyph glyph-name="braceleft" unicode="{" horiz-adv-x="833" 
d="M756 1497h-234q-98 0 -190 -61q-43 -31 -70 -80q-31 -52 -31 -121v-385q-4 -78 -67 -96q-62 -23 -105 -21v-313q43 2 105 -21q63 -24 67 -112v-369q0 -67 31 -117q27 -49 70 -82q92 -63 190 -63h234v313h-58q-39 2 -63 15q-25 12 -37 30q-12 19 -14 41q-4 21 -4 39v279
q0 69 -23 110q-25 39 -63 58q-37 20 -78 26q-43 6 -80 6v4q78 3 158 39q38 21 63 58q23 33 23 88v297q-3 43 16 82q20 41 88 43h72v313z" />
    <glyph glyph-name="bar" unicode="|" horiz-adv-x="455" 
d="M72 -438h313v2048h-313v-2048z" />
    <glyph glyph-name="braceright" unicode="}" horiz-adv-x="833" 
d="M78 -344h233q103 0 195 63q45 33 69 82q27 50 27 117v385q2 78 68 100q61 17 104 17v313q-43 -2 -104 23q-66 24 -68 110v369q0 69 -27 121q-24 49 -69 80q-92 61 -195 61h-233v-313h57q80 -2 103 -43q16 -39 16 -82v-279q0 -67 27 -106q24 -39 61 -60q39 -18 80 -24
q41 -8 76 -10v-5q-76 0 -156 -36q-37 -21 -61 -56q-27 -37 -27 -92v-297q0 -39 -16 -80q-23 -43 -103 -45h-57v-313z" />
    <glyph glyph-name="asciitilde" unicode="~" horiz-adv-x="1229" 
d="M1014 752v0q-33 -56 -76 -99q-43 -47 -105 -47q-40 0 -94 25q-55 22 -114 47q-60 29 -115 47q-59 18 -113 18q-100 -2 -161 -55q-62 -53 -95 -121l74 -282v0q25 57 66 100q38 43 106 45q72 0 129 -20q57 -21 107 -50q51 -28 102 -47q51 -20 106 -20q95 0 154 57
q31 27 57 58q25 30 45 61z" />
    <glyph glyph-name="uni20AC" 
d="M1339 1364q-217 115 -411 115q-246 0 -422 -146q-172 -141 -238 -387h-88l-76 -182h138q-2 -8 -2 -21v-24v-27q0 -10 2 -18h-58l-75 -182h159q64 -240 234 -386q172 -141 418 -141q196 0 337 64v381q-155 -103 -284 -103q-195 0 -271 185h275l76 182h-387q-2 10 -2 20v27
v22q0 11 2 21h421l76 182h-465q78 189 256 189q117 0 240 -80z" />
    <glyph glyph-name="uni20AC" unicode="&#x20ac;" 
d="M1339 1364q-217 115 -411 115q-246 0 -422 -146q-172 -141 -238 -387h-88l-76 -182h138q-2 -8 -2 -21v-24v-27q0 -10 2 -18h-58l-75 -182h159q64 -240 234 -386q172 -141 418 -141q196 0 337 64v381q-155 -103 -284 -103q-195 0 -271 185h275l76 182h-387q-2 10 -2 20v27
v22q0 11 2 21h421l76 182h-465q78 189 256 189q117 0 240 -80z" />
    <glyph glyph-name="quotesinglbase" unicode="&#x201a;" horiz-adv-x="606" 
d="M491 405h-376v-405h168q0 -80 -39 -129t-129 -63v-179v0q123 19 198 60q74 41 113 98t53 131q12 72 12 152v335z" />
    <glyph glyph-name="florin" unicode="&#x192;" 
d="M6 -360q80 -9 160 -11q235 -2 356 82q123 86 180 312l150 548h192l70 250h-195l70 285q27 96 129 96q43 0 84 -6l78 289q-117 12 -229 12q-209 -2 -320 -115q-111 -114 -162 -317l-65 -244h-195l-69 -250h194l-131 -485q-18 -78 -53 -119q-35 -43 -119 -43q-20 0 -45 6z
" />
    <glyph glyph-name="quotedblbase" unicode="&#x201e;" horiz-adv-x="1063" 
d="M971 405h-377v-405h168q0 -80 -39 -129t-129 -63v-179v0q123 19 199 60q73 41 112 98t53 131q13 72 13 152v335zM471 405h-377v-405h168q0 -80 -39 -129t-129 -63v-179v0q123 19 199 60q74 41 112 98q39 57 54 131q12 72 12 152v335z" />
    <glyph glyph-name="ellipsis" unicode="&#x2026;" horiz-adv-x="2048" 
d="M555 0v405h-426v-405h426zM1919 0v405h-426v-405h426zM1237 0v405h-426v-405h426z" />
    <glyph glyph-name="dagger" unicode="&#x2020;" horiz-adv-x="1366" 
d="M481 -356h406v1116h358v323h-358v379h-406v-379h-358v-323h358v-1116z" />
    <glyph glyph-name="daggerdbl" unicode="&#x2021;" horiz-adv-x="1366" 
d="M481 -356h406v383h358v323h-358v410h358v323h-358v379h-406v-379h-358v-323h358v-410h-358v-323h358v-383z" />
    <glyph glyph-name="circumflex" unicode="&#x2c6;" horiz-adv-x="569" 
d="M-131 1165h301l115 156v0l116 -156h301l-249 305h-336z" />
    <glyph glyph-name="perthousand" unicode="&#x2030;" horiz-adv-x="2390" 
d="M305 -53h225l840 1532h-225zM954 340q0 -154 72 -252q74 -102 225 -104q156 2 228 104q69 98 69 252t-69 252q-72 100 -228 102q-151 -2 -225 -102q-72 -98 -72 -252v0zM1167 338q-2 55 11 115q12 61 73 63q64 -2 76 -63q10 -60 8 -115q2 -53 -8 -111q-12 -63 -76 -65
q-30 0 -47 20q-18 17 -26 45q-13 58 -11 111v0zM1874 338q-2 55 10 115q12 61 74 63q63 -2 76 -63q10 -60 8 -115q2 -53 -8 -111q-13 -63 -76 -65q-31 0 -47 20q-19 17 -27 45q-12 58 -10 111v0zM1661 340q0 -154 71 -252q74 -102 226 -104q155 2 227 104q70 98 70 252
t-70 252q-72 100 -227 102q-152 -2 -226 -102q-71 -98 -71 -252v0zM133 1087q0 -153 72 -251q74 -103 225 -105q156 2 227 105q70 98 70 251q0 154 -70 252q-71 101 -227 103q-151 -2 -225 -103q-72 -98 -72 -252v0zM346 1085q-2 56 10 115q13 61 74 64q64 -3 76 -64
q10 -59 8 -115q2 -53 -8 -110q-12 -64 -76 -66q-31 0 -47 21q-18 16 -27 45q-12 57 -10 110v0z" />
    <glyph glyph-name="Scaron" unicode="&#x160;" horiz-adv-x="1366" 
d="M25 491q6 -174 81 -276q74 -106 181 -160q108 -53 213 -71q104 -19 168 -19q258 -2 462 111q207 112 213 393q0 100 -32 174q-35 70 -95 119q-59 49 -131 78q-73 30 -153 51q-160 39 -285 76q-59 20 -96 47q-39 24 -43 61q0 31 18 51q17 19 41 29q53 18 103 18
q73 0 133 -36q61 -35 53 -117h426q-16 264 -188 375q-177 104 -422 102q-234 0 -406 -113q-180 -116 -184 -370q0 -109 47 -178q45 -74 117 -119q71 -45 159 -74q84 -29 172 -53q187 -49 254 -80q64 -33 62 -88q-2 -78 -64 -107q-63 -28 -122 -26q-64 0 -125 22
q-64 21 -91 84q-16 41 -16 96h-450zM1110 1869h-301l-116 -155v0l-115 155h-301l248 -305h336z" />
    <glyph glyph-name="guilsinglleft" unicode="&#x2039;" horiz-adv-x="494" 
d="M414 98v0v322l-158 123l158 125v321v0l-334 -264v-363z" />
    <glyph glyph-name="OE" unicode="&#x152;" horiz-adv-x="2314" 
d="M1096 72v-72h1126v375h-715v182h635v348h-635v182h694v375h-1105v-78v0q-64 64 -146 90q-84 23 -172 23q-332 -4 -516 -233q-186 -226 -188 -547q2 -307 186 -525q182 -221 500 -227q82 0 180 25q47 12 90 35q41 18 66 47v0zM1094 741q-2 -149 -37 -233t-86 -123
q-49 -37 -95 -45q-47 -10 -67 -10q-16 0 -62 10q-45 8 -96 45q-51 39 -86 123q-41 84 -41 233q0 150 41 230q39 82 90 116q54 35 99 43q41 2 55 2q16 0 61 -2q45 -8 97 -43q51 -34 90 -116q35 -80 37 -230v0z" />
    <glyph glyph-name="quoteleft" unicode="&#x2018;" horiz-adv-x="606" 
d="M115 686h376v406h-167q-5 165 167 192v178v0q-120 -14 -196 -55t-115 -100q-39 -58 -51 -129q-14 -74 -14 -156v-336z" />
    <glyph glyph-name="quoteright" unicode="&#x2019;" horiz-adv-x="606" 
d="M491 1462h-376v-405h168q0 -80 -39 -129t-129 -64v-178v0q123 18 198 59q74 41 113 99q39 57 53 131q12 71 12 151v336z" />
    <glyph glyph-name="quotedblleft" unicode="&#x201c;" horiz-adv-x="1063" 
d="M594 686h377v406h-168q-4 165 168 192v178v0q-121 -14 -197 -55t-115 -100q-39 -58 -51 -129q-14 -74 -14 -156v-336zM94 686h377v406h-168q-4 165 168 192v178v0q-121 -14 -197 -55q-75 -41 -114 -100q-39 -58 -51 -129q-15 -74 -15 -156v-336z" />
    <glyph glyph-name="quotedblright" unicode="&#x201d;" horiz-adv-x="1063" 
d="M971 1462h-377v-405h168q0 -80 -39 -129t-129 -64v-178v0q123 18 199 59q73 41 112 99q39 57 53 131q13 71 13 151v336zM471 1462h-377v-405h168q0 -80 -39 -129t-129 -64v-178v0q123 18 199 59q74 41 112 99q39 57 54 131q12 71 12 151v336z" />
    <glyph glyph-name="bullet" unicode="&#x2022;" horiz-adv-x="1024" 
d="M147 731q2 -156 109 -258q102 -106 256 -108q158 2 260 108q104 102 107 258q-3 158 -107 260q-102 103 -260 105q-154 -2 -256 -105q-107 -102 -109 -260v0z" />
    <glyph glyph-name="endash" unicode="&#x2013;" horiz-adv-x="1024" 
d="M0 385h1024v324h-1024v-324z" />
    <glyph glyph-name="emdash" unicode="&#x2014;" horiz-adv-x="2048" 
d="M266 385h1516v324h-1516v-324z" />
    <glyph glyph-name="tilde" unicode="&#x2dc;" horiz-adv-x="569" 
d="M-117 1165h162q6 33 29 60q22 26 55 28q59 -2 135 -37q80 -36 182 -38q115 2 177 86q59 79 61 198h-168q-10 -51 -33 -67q-24 -21 -59 -21q-16 0 -47 14q-31 11 -74 27q-41 16 -88 29q-49 12 -102 12q-129 -4 -181 -98q-51 -92 -49 -193v0z" />
    <glyph glyph-name="trademark" unicode="&#x2122;" horiz-adv-x="2048" 
d="M770 1462h-704v-192h213v-652h278v652h213v192zM1982 1462h-352l-164 -489h-4l-164 489h-352v-844h254v471h4l154 -471h213l153 471h4v-471h254v844z" />
    <glyph glyph-name="scaron" unicode="&#x161;" horiz-adv-x="1176" 
d="M1094 754q-5 104 -52 170q-47 67 -123 102q-159 66 -342 63q-81 0 -165 -14q-88 -14 -164 -53q-76 -35 -123 -103q-49 -67 -49 -167q0 -134 102 -213q103 -82 332 -121q139 -23 184 -45q41 -23 39 -68t-47 -63q-47 -19 -90 -19q-76 0 -109 31q-45 39 -49 94h-387
q15 -203 174 -289q160 -86 357 -86q202 -2 368 78q78 43 125 117q47 70 47 180q0 68 -18 117q-21 49 -58 82q-73 69 -178 98q-104 33 -202 49q-46 8 -86 17q-39 6 -68 16q-16 8 -31 23q-16 12 -16 32q0 51 41 68q37 14 82 14q51 0 90 -31q43 -26 47 -79h369zM1009 1470h-301
l-116 -155v0l-115 155h-301l248 -305h336z" />
    <glyph glyph-name="guilsinglright" unicode="&#x203a;" horiz-adv-x="494" 
d="M80 989v0v-321l158 -125l-158 -123v-322v0l334 264v363z" />
    <glyph glyph-name="oe" unicode="&#x153;" horiz-adv-x="2009" 
d="M1180 651q6 92 63 135q55 43 133 43q174 -2 187 -178h-383zM831 530q2 -88 -28 -172q-17 -36 -53 -63q-35 -27 -97 -27q-57 0 -92 27q-37 27 -57 63q-19 41 -25 86q-8 45 -8 86q-2 93 33 177q20 40 57 65q35 23 92 23q62 0 97 -23q36 -25 53 -65q18 -39 24 -87
q4 -47 4 -90v0zM1569 309q-68 -78 -174 -76q-99 0 -156 58q-59 53 -59 149h786q8 283 -133 465q-146 180 -440 184q-207 3 -367 -129v0q-72 74 -172 103q-100 26 -203 26q-82 0 -180 -22q-49 -12 -96 -33q-49 -20 -96 -55q-93 -60 -150 -170q-63 -111 -63 -279
q2 -268 155 -411q150 -144 402 -146q106 0 206 31q101 29 176 105v0q84 -76 183 -105q98 -31 207 -31q200 0 350 82q147 80 215 254h-391z" />
    <glyph glyph-name="Ydieresis" unicode="&#x178;" horiz-adv-x="1366" 
d="M453 0h450v539l524 923h-493l-254 -538v0l-244 538h-497l514 -923v-539zM756 1574h348v267h-348v-267zM291 1574h348v267h-348v-267z" />
    <glyph glyph-name="nonbreakingspace" unicode="&#xa0;" horiz-adv-x="684" 
 />
    <glyph glyph-name="exclamdown" unicode="&#xa1;" horiz-adv-x="645" 
d="M111 -340h426v344l-113 592h-199l-114 -592v-344zM537 1122h-426v-405h426v405z" />
    <glyph glyph-name="cent" unicode="&#xa2;" 
d="M649 276q-86 25 -119 101q-14 37 -20 80q-8 41 -8 84q-2 100 30 168q33 67 117 84v-517zM649 -223h107v196q194 2 327 127q133 121 162 324h-373q-4 -53 -32 -86q-31 -35 -84 -62v0v517q98 -17 108 -134h371q-33 424 -479 430v164h-107v-164q-241 -2 -387 -157
q-147 -156 -149 -393q2 -250 149 -406q146 -158 387 -160v-196z" />
    <glyph glyph-name="sterling" unicode="&#xa3;" 
d="M1268 991q-33 504 -547 506q-289 -4 -418 -150q-129 -141 -127 -309q2 -121 62 -194h-146v-260h240q12 -31 12 -76q-2 -111 -68 -182q-67 -74 -157 -131l162 -230v0q51 37 102 60q51 20 113 20q65 0 122 -10q56 -10 107 -23q55 -16 115 -30q57 -17 131 -17q207 2 356 166
l-162 291v0q-16 -37 -53 -82q-35 -49 -96 -51q-88 4 -191 39q-49 14 -94 14q-47 0 -90 -20l-4 4q63 45 96 116q33 70 14 142h154v260h-223q-19 47 -45 102q-29 53 -31 105q0 55 31 90q31 32 100 32q43 0 70 -20q26 -23 41 -49q28 -58 28 -113h396z" />
    <glyph glyph-name="currency" unicode="&#xa4;" 
d="M960 285l121 -123v0l154 153l-119 119q39 43 64 121q22 76 22 158q-2 88 -24 163q-27 74 -62 113l119 119l-156 153v0l-119 -114v0q-92 76 -272 80q-188 -4 -278 -80v0l-117 114v0l-160 -155l123 -117q-29 -39 -55 -113q-25 -75 -27 -163q0 -84 29 -160q24 -76 53 -119
l-123 -119l154 -153v0l123 119v0q100 -82 278 -82q172 0 272 86v0zM688 932q82 0 150 -53q67 -56 69 -166q-2 -109 -69 -164q-68 -55 -150 -55q-80 0 -145 55q-72 55 -74 164q2 110 74 166q65 53 145 53v0z" />
    <glyph glyph-name="yen" unicode="&#xa5;" 
d="M481 0h406v219h329v250h-329v88l43 88h286v250h-149l307 567h-461l-229 -567v0l-229 567h-461l307 -567h-149v-250h286l43 -88v-88h-329v-250h329v-219z" />
    <glyph glyph-name="brokenbar" unicode="&#xa6;" horiz-adv-x="455" 
d="M72 -182h313v512h-313v-512zM72 842h313v512h-313v-512z" />
    <glyph glyph-name="section" unicode="&#xa7;" horiz-adv-x="1366" 
d="M412 668q0 30 24 53q21 22 45 22q37 -6 70 -22q162 -62 323 -131q41 -17 62 -33q18 -18 18 -63q0 -29 -22 -46q-23 -18 -51 -22q-17 6 -62 22q-45 19 -67 23q-97 37 -211 84q-54 25 -90 51q-39 29 -39 62v0zM1194 1085q-14 213 -154 314q-143 98 -350 98q-176 0 -323 -88
q-152 -90 -156 -287q0 -112 82 -194q-230 -80 -230 -320q0 -69 31 -123q29 -55 74 -94q98 -78 217 -125q147 -61 299 -121q51 -16 86 -43q33 -28 33 -86q-2 -45 -43 -67q-39 -23 -82 -23q-133 -2 -158 140h-348q2 -232 150 -334q145 -101 360 -101q199 0 352 99
q154 98 158 311q-2 135 -107 219q66 10 140 78q34 37 57 94q20 55 20 137q-2 95 -43 158t-108 106q-66 43 -133 70q-70 25 -123 41q-80 29 -182 72q-47 22 -78 47q-35 24 -35 53q0 43 35 66q33 20 74 20q118 0 133 -117h352z" />
    <glyph glyph-name="dieresis" unicode="&#xa8;" horiz-adv-x="569" 
d="M344 1175h348v267h-348v-267zM-121 1175h348v267h-348v-267z" />
    <glyph glyph-name="copyright" unicode="&#xa9;" horiz-adv-x="1638" 
d="M989 633q-6 -66 -51 -92q-43 -27 -109 -27q-79 0 -131 61q-55 62 -55 158q0 100 51 156q47 57 137 57q131 0 158 -106h197q-68 317 -361 317q-190 -2 -297 -121q-110 -119 -110 -307q0 -182 114 -301q111 -123 297 -125q140 0 240 82q98 82 125 248h-205zM53 731
q4 -323 226 -541q217 -221 540 -225q328 4 545 225q217 218 221 541q-4 328 -221 545t-545 221q-323 -4 -540 -221q-222 -217 -226 -545v0zM307 731q2 223 150 373q143 149 362 153q223 -4 367 -153q143 -150 145 -373q-2 -221 -145 -371q-144 -153 -367 -155
q-219 2 -362 155q-148 150 -150 371v0z" />
    <glyph glyph-name="ordfeminine" unicode="&#xaa;" horiz-adv-x="752" 
d="M477 1008q-14 -97 -119 -97q-30 0 -51 19q-22 14 -22 45q0 35 28 49q27 14 60 20q53 11 104 31v-67zM731 1194q0 78 -29 127q-30 49 -79 76q-50 28 -107 36q-59 9 -115 9q-61 0 -120 -4q-62 -9 -115 -31q-49 -21 -82 -64t-37 -112h246q0 33 31 51q28 16 65 16
q35 0 62 -10q26 -14 26 -49q0 -31 -22 -39q-23 -10 -52 -16q-59 -9 -124 -15q-66 -8 -125 -26q-60 -17 -97 -60q-39 -43 -39 -118q0 -99 72 -148q68 -49 168 -49q66 0 125 18q55 17 96 62h2q0 -31 10 -64h269q-6 15 -17 45q-12 29 -12 68v297z" />
    <glyph glyph-name="guillemotleft" unicode="&#xab;" horiz-adv-x="909" 
d="M420 98v0v322l-160 123l160 131v315v0l-334 -264v-363zM823 98v0v322l-159 123l159 131v315v0l-334 -264v-363z" />
    <glyph glyph-name="logicalnot" unicode="&#xac;" horiz-adv-x="1229" 
d="M1132 922h-1034v-314h721v-387h313v701z" />
    <glyph glyph-name="uni00AD" unicode="&#xad;" horiz-adv-x="833" 
d="M96 379h641v336h-641v-336z" />
    <glyph glyph-name="registered" unicode="&#xae;" horiz-adv-x="1638" 
d="M53 731q4 -323 226 -541q217 -221 540 -225q328 4 545 225q217 218 221 541q-4 328 -221 545t-545 221q-323 -4 -540 -221q-222 -217 -226 -545v0zM307 731q2 223 150 373q143 149 362 153q223 -4 367 -153q143 -150 145 -373q-2 -221 -145 -371q-144 -153 -367 -155
q-219 2 -362 155q-148 150 -150 371v0zM516 342h184v309h74l156 -309h198l-174 322q88 6 146 53q57 49 59 157q0 142 -88 195q-86 51 -254 49h-301v-776zM700 975h113q49 0 98 -10q49 -13 51 -70q-2 -109 -108 -100h-154v180z" />
    <glyph glyph-name="macron" unicode="&#xaf;" horiz-adv-x="569" 
d="M-61 1225h694v186h-694v-186z" />
    <glyph glyph-name="degree" unicode="&#xb0;" horiz-adv-x="819" 
d="M104 1137q0 -136 88 -218q82 -88 218 -88q135 0 221 88q82 82 84 218q-2 135 -84 221q-86 82 -221 84q-136 -2 -218 -84q-88 -86 -88 -221v0zM264 1137q0 65 43 106q43 39 103 39q63 0 104 -39q39 -41 41 -106q-2 -64 -41 -103q-41 -43 -104 -43q-60 0 -103 43
q-43 39 -43 103v0z" />
    <glyph glyph-name="plusminus" unicode="&#xb1;" horiz-adv-x="1229" 
d="M98 555h361v-166h313v166h360v313h-360v166h-313v-166h-361v-313zM98 0h1034v313h-1034v-313z" />
    <glyph glyph-name="twosuperior" unicode="&#xb2;" horiz-adv-x="819" 
d="M276 1071q-2 72 31 123q33 53 111 55q47 0 76 -28q28 -31 28 -80q-2 -43 -39 -70q-39 -31 -80 -51q-67 -39 -139 -78q-72 -43 -131 -94q-59 -47 -92 -115q-35 -67 -33 -156h803v211h-420q2 19 66 43q59 25 139 64q80 43 141 108q62 68 64 170q-6 273 -381 269
q-191 0 -295 -97q-107 -96 -98 -274h249z" />
    <glyph glyph-name="threesuperior" unicode="&#xb3;" horiz-adv-x="819" 
d="M301 1145q0 47 37 76q33 28 86 28t86 -20q33 -23 33 -64q-2 -37 -43 -51q-43 -16 -92 -16q-35 0 -66 2v-164q27 2 74 2q43 0 84 -12q41 -17 43 -72q-2 -51 -39 -76q-39 -24 -88 -24q-76 -2 -113 47q-29 35 -29 96h-254q-2 -147 91 -240q90 -94 309 -96q219 2 311 80
q90 74 90 170q0 100 -39 149q-39 48 -104 68v4q26 6 72 39q18 18 34 51q13 31 13 78q-2 111 -99 176q-100 64 -274 66q-156 0 -262 -74q-109 -74 -115 -223h254z" />
    <glyph glyph-name="acute" unicode="&#xb4;" horiz-adv-x="569" 
d="M704 1470h-428l-202 -305h278z" />
    <glyph glyph-name="mu" unicode="&#xb5;" horiz-adv-x="1327" 
d="M1216 1063h-405v-561q0 -62 -12 -101q-17 -43 -41 -63q-54 -43 -109 -41q-86 0 -110 59q-25 58 -23 150v557h-405v-1407h405v317q195 7 305 162h4v-135h391v1063z" />
    <glyph glyph-name="paragraph" unicode="&#xb6;" horiz-adv-x="1270" 
d="M494 -356h278v1607h133v-1607h279v1818h-643q-217 2 -357 -69q-145 -78 -147 -295q2 -346 457 -351v-1103z" />
    <glyph glyph-name="periodcentered" unicode="&#xb7;" horiz-adv-x="684" 
d="M96 485q2 -104 74 -172q68 -71 172 -73q104 2 174 73q70 68 72 172q-2 105 -72 174q-70 70 -174 72q-104 -2 -172 -72q-72 -69 -74 -174v0z" />
    <glyph glyph-name="periodcentered" unicode="&#x2219;" horiz-adv-x="684" 
d="M96 485q2 -104 74 -172q68 -71 172 -73q104 2 174 73q70 68 72 172q-2 105 -72 174q-70 70 -174 72q-104 -2 -172 -72q-72 -69 -74 -174v0z" />
    <glyph glyph-name="cedilla" unicode="&#xb8;" horiz-adv-x="569" 
d="M2 -418q37 -12 70 -20q32 -13 65 -21q64 -16 148 -16q118 0 190 47q70 45 78 125q2 25 2 47q-2 21 -12 39q-19 35 -49 55q-66 43 -146 41q-63 2 -86 -10l-4 4l82 127h-119l-115 -188l54 -50q39 21 80 21q39 0 63 -18q23 -19 25 -54q0 -39 -33 -57q-33 -19 -74 -19
q-45 3 -88 15q-43 14 -88 26z" />
    <glyph glyph-name="onesuperior" unicode="&#xb9;" horiz-adv-x="819" 
d="M322 577h278v848h-219q-10 -102 -90 -145t-187 -45v-178h218v-480z" />
    <glyph glyph-name="ordmasculine" unicode="&#xba;" horiz-adv-x="774" 
d="M20 1108q0 -139 95 -236q92 -102 284 -104q195 2 289 104q90 97 90 236q0 137 -90 233q-94 99 -289 101q-192 -2 -284 -101q-95 -96 -95 -233v0zM299 1108q-2 55 18 104q21 49 82 52q66 -3 84 -52q17 -49 17 -104t-17 -107q-18 -53 -84 -55q-61 2 -82 55q-20 52 -18 107
v0z" />
    <glyph glyph-name="guillemotright" unicode="&#xbb;" horiz-adv-x="909" 
d="M86 989v0v-321l160 -125l-160 -123v-322v0l334 264v363zM489 989v0v-321l160 -125l-160 -123v-322v0l334 264v363z" />
    <glyph glyph-name="onequarter" unicode="&#xbc;" horiz-adv-x="2048" 
d="M420 -53h225l795 1532h-226zM356 577h279v848h-219q-11 -102 -90 -145q-80 -43 -187 -45v-178h217v-480zM1433 0h279v170h125v211h-125v467h-266l-422 -447v-231h409v-170zM1433 618v-237h-225l225 237v0z" />
    <glyph glyph-name="onehalf" unicode="&#xbd;" horiz-adv-x="2048" 
d="M420 -53h223l797 1532h-226zM1909 0v211h-420q2 18 65 43q60 25 140 63q79 43 141 109q61 68 63 170q-6 272 -381 268q-190 0 -294 -96q-107 -96 -99 -274h250q-2 71 31 122q33 54 110 56q48 0 76 -29q29 -31 29 -80q-2 -43 -39 -69q-39 -31 -80 -52q-68 -39 -139 -77
q-72 -43 -131 -95q-60 -47 -92 -114q-35 -68 -33 -156h803zM356 577h279v848h-219q-4 -53 -27 -90q-24 -37 -65 -59q-84 -41 -185 -41v-178h217v-480z" />
    <glyph glyph-name="threequarters" unicode="&#xbe;" horiz-adv-x="2048" 
d="M1583 0h278v170h125v211h-125v467h-266l-422 -447v-231h410v-170zM1358 381l225 237v0v-237h-225zM575 -53h224l796 1532h-225zM340 1145q0 47 37 76q33 28 86 28t86 -20q33 -23 33 -64q-2 -37 -43 -51q-43 -16 -93 -16q-34 0 -65 2v-164q27 2 74 2q43 0 84 -12
q41 -17 43 -72q-2 -51 -39 -76q-39 -24 -88 -24q-76 -2 -113 47q-29 35 -29 96h-254q-2 -147 90 -240q91 -94 310 -96q219 2 311 80q90 74 90 170q0 100 -39 149q-39 48 -104 68v4q26 6 71 39q19 18 35 51q13 31 13 78q-3 111 -99 176q-100 64 -274 66q-156 0 -262 -74
q-109 -74 -115 -223h254z" />
    <glyph glyph-name="questiondown" unicode="&#xbf;" horiz-adv-x="1175" 
d="M719 152q2 -78 -25 -125q-28 -47 -119 -50q-45 3 -73 27q-33 25 -33 68q2 71 55 98q49 25 113 53q67 31 117 109q49 80 51 262h-381q0 -51 -16 -88q-17 -37 -46 -62q-26 -24 -61 -43q-37 -20 -74 -41q-37 -18 -71 -38q-35 -25 -64 -58q-26 -33 -43 -82q-18 -51 -18 -125
q0 -110 51 -190q47 -80 125 -133q168 -105 370 -105q250 0 404 133q151 134 164 390h-426zM827 1122h-426v-405h426v405z" />
    <glyph glyph-name="Agrave" unicode="&#xc0;" horiz-adv-x="1479" 
d="M600 522l141 451h4l131 -451h-276zM-16 0h452l66 209h465l61 -209h467l-533 1462h-440zM682 1564h281l-205 305h-426z" />
    <glyph glyph-name="Aacute" unicode="&#xc1;" horiz-adv-x="1479" 
d="M600 522l141 451h4l131 -451h-276zM-16 0h452l66 209h465l61 -209h467l-533 1462h-440zM1175 1869h-428l-202 -305h278z" />
    <glyph glyph-name="Acircumflex" unicode="&#xc2;" horiz-adv-x="1479" 
d="M600 522l141 451h4l131 -451h-276zM-16 0h452l66 209h465l61 -209h467l-533 1462h-440zM336 1564h301l115 156v0l116 -156h301l-249 305h-336z" />
    <glyph glyph-name="Atilde" unicode="&#xc3;" horiz-adv-x="1479" 
d="M600 522l141 451h4l131 -451h-276zM-16 0h452l66 209h465l61 -209h467l-533 1462h-440zM352 1564h162q6 33 29 60q22 26 55 28q59 -2 135 -37q80 -36 182 -38q115 2 177 86q59 79 61 198h-168q-10 -51 -33 -67q-24 -21 -59 -21q-16 0 -47 14q-31 11 -74 27q-41 16 -88 29
q-49 12 -102 12q-129 -4 -181 -98q-51 -92 -49 -193v0z" />
    <glyph glyph-name="Adieresis" unicode="&#xc4;" horiz-adv-x="1479" 
d="M600 522l141 451h4l131 -451h-276zM-16 0h452l66 209h465l61 -209h467l-533 1462h-440zM811 1574h348v267h-348v-267zM346 1574h348v267h-348v-267z" />
    <glyph glyph-name="Aring" unicode="&#xc5;" horiz-adv-x="1479" 
d="M600 522l141 451h4l131 -451h-276zM-16 0h452l66 209h465l61 -209h467l-533 1462h-440zM524 1722q0 -98 70 -162q63 -70 162 -70q98 0 163 70q64 68 66 162q-2 98 -66 164q-65 63 -163 65q-95 -2 -162 -65q-70 -66 -70 -164v0zM647 1722q0 45 35 76q33 28 74 30
q45 -2 75 -30q29 -31 31 -76q-2 -41 -31 -74q-30 -35 -75 -35t-74 35q-35 29 -35 74v0z" />
    <glyph glyph-name="AE" unicode="&#xc6;" horiz-adv-x="2163" 
d="M956 510h-311l252 577h59v-577zM-33 0h469l88 215h432v-215h1114v375h-688v182h619v348h-619v182h664v375h-1413z" />
    <glyph glyph-name="Ccedilla" unicode="&#xc7;" horiz-adv-x="1554" 
d="M1040 573q-16 -104 -69 -172q-56 -71 -168 -71q-154 2 -217 127q-64 120 -62 274q-2 154 62 274q63 123 217 127q71 0 116 -22q46 -25 70 -64q25 -34 37 -69q10 -37 12 -60h439q-60 564 -662 580q-342 -2 -539 -209q-200 -205 -202 -557q0 -301 164 -506
q159 -207 458 -252l-98 -161l53 -50q39 21 80 21q39 0 64 -18q22 -19 24 -54q0 -39 -33 -57q-32 -19 -73 -19q-45 3 -88 15q-43 14 -88 26l-43 -94q36 -12 69 -20q33 -13 66 -21q63 -16 147 -16q119 0 191 47q69 45 77 125q2 25 2 47q-2 21 -12 39q-18 35 -49 55
q-66 43 -145 41q-64 2 -86 -10l-4 4l59 92h6q326 6 496 195q170 182 172 413h-443z" />
    <glyph glyph-name="Egrave" unicode="&#xc8;" horiz-adv-x="1442" 
d="M117 0h1233v375h-783v182h690v348h-690v182h760v375h-1210v-1462zM655 1564h281l-205 305h-426z" />
    <glyph glyph-name="Eacute" unicode="&#xc9;" horiz-adv-x="1442" 
d="M117 0h1233v375h-783v182h690v348h-690v182h760v375h-1210v-1462zM1153 1869h-428l-202 -305h278z" />
    <glyph glyph-name="Ecircumflex" unicode="&#xca;" horiz-adv-x="1442" 
d="M117 0h1233v375h-783v182h690v348h-690v182h760v375h-1210v-1462zM309 1564h301l115 156v0l116 -156h301l-249 305h-336z" />
    <glyph glyph-name="Edieresis" unicode="&#xcb;" horiz-adv-x="1442" 
d="M117 0h1233v375h-783v182h690v348h-690v182h760v375h-1210v-1462zM788 1574h348v267h-348v-267zM323 1574h348v267h-348v-267z" />
    <glyph glyph-name="Igrave" unicode="&#xcc;" horiz-adv-x="682" 
d="M117 0h450v1462h-450v-1462zM266 1564h281l-205 305h-426z" />
    <glyph glyph-name="Iacute" unicode="&#xcd;" horiz-adv-x="682" 
d="M117 0h450v1462h-450v-1462zM761 1869h-428l-202 -305h278z" />
    <glyph glyph-name="Icircumflex" unicode="&#xce;" horiz-adv-x="682" 
d="M117 0h450v1462h-450v-1462zM-78 1564h301l115 156v0l116 -156h301l-249 305h-336z" />
    <glyph glyph-name="Idieresis" unicode="&#xcf;" horiz-adv-x="682" 
d="M117 0h450v1462h-450v-1462zM397 1574h348v267h-348v-267zM-68 1574h348v267h-348v-267z" />
    <glyph glyph-name="Eth" unicode="&#xd0;" horiz-adv-x="1593" 
d="M117 0h651q752 14 747 731q2 291 -145 506q-152 219 -514 225h-739v-577h-115v-250h115v-635zM567 1087h144q122 0 194 -38q72 -41 107 -99q37 -57 47 -114q6 -58 6 -97q0 -49 -10 -112q-13 -62 -45 -119q-33 -55 -97 -94q-63 -39 -170 -39h-176v260h279v250h-279v202z
" />
    <glyph glyph-name="Ntilde" unicode="&#xd1;" horiz-adv-x="1554" 
d="M119 0h426v799h4l448 -799h439v1462h-426v-782h-5l-425 782h-461v-1462zM387 1564h162q6 33 29 60q22 26 55 28q59 -2 135 -37q80 -36 182 -38q115 2 177 86q59 79 61 198h-168q-10 -51 -33 -67q-24 -21 -59 -21q-16 0 -47 14q-31 11 -74 27q-41 16 -88 29
q-49 12 -102 12q-129 -4 -181 -98q-51 -92 -49 -193v0z" />
    <glyph glyph-name="Ograve" unicode="&#xd2;" horiz-adv-x="1630" 
d="M74 731q2 -340 207 -549q198 -213 534 -217q340 4 539 217q200 209 202 549q-2 342 -202 551q-199 211 -539 215q-336 -4 -534 -215q-205 -209 -207 -551v0zM524 731q0 123 31 203q16 41 35 71q18 29 39 50q45 45 94 63q49 14 92 14q94 3 190 -77q46 -41 74 -121
q27 -80 27 -203q0 -119 -27 -197q-28 -79 -74 -124q-43 -43 -94 -62q-53 -18 -96 -18q-92 -2 -186 80q-45 45 -74 124q-31 78 -31 197v0zM756 1564h281l-205 305h-426z" />
    <glyph glyph-name="Oacute" unicode="&#xd3;" horiz-adv-x="1630" 
d="M74 731q2 -340 207 -549q198 -213 534 -217q340 4 539 217q200 209 202 549q-2 342 -202 551q-199 211 -539 215q-336 -4 -534 -215q-205 -209 -207 -551v0zM524 731q0 123 31 203q16 41 35 71q18 29 39 50q45 45 94 63q49 14 92 14q94 3 190 -77q46 -41 74 -121
q27 -80 27 -203q0 -119 -27 -197q-28 -79 -74 -124q-43 -43 -94 -62q-53 -18 -96 -18q-92 -2 -186 80q-45 45 -74 124q-31 78 -31 197v0zM1251 1869h-428l-202 -305h278z" />
    <glyph glyph-name="Ocircumflex" unicode="&#xd4;" horiz-adv-x="1630" 
d="M74 731q2 -340 207 -549q198 -213 534 -217q340 4 539 217q200 209 202 549q-2 342 -202 551q-199 211 -539 215q-336 -4 -534 -215q-205 -209 -207 -551v0zM524 731q0 123 31 203q16 41 35 71q18 29 39 50q45 45 94 63q49 14 92 14q94 3 190 -77q46 -41 74 -121
q27 -80 27 -203q0 -119 -27 -197q-28 -79 -74 -124q-43 -43 -94 -62q-53 -18 -96 -18q-92 -2 -186 80q-45 45 -74 124q-31 78 -31 197v0zM412 1564h301l115 156v0l116 -156h301l-249 305h-336z" />
    <glyph glyph-name="Otilde" unicode="&#xd5;" horiz-adv-x="1630" 
d="M74 731q2 -340 207 -549q198 -213 534 -217q340 4 539 217q200 209 202 549q-2 342 -202 551q-199 211 -539 215q-336 -4 -534 -215q-205 -209 -207 -551v0zM524 731q0 123 31 203q16 41 35 71q18 29 39 50q45 45 94 63q49 14 92 14q94 3 190 -77q46 -41 74 -121
q27 -80 27 -203q0 -119 -27 -197q-28 -79 -74 -124q-43 -43 -94 -62q-53 -18 -96 -18q-92 -2 -186 80q-45 45 -74 124q-31 78 -31 197v0zM428 1564h162q6 33 29 60q22 26 55 28q59 -2 135 -37q80 -36 182 -38q115 2 177 86q59 79 61 198h-168q-10 -51 -33 -67
q-24 -21 -59 -21q-16 0 -47 14q-31 11 -74 27q-41 16 -88 29q-49 12 -102 12q-129 -4 -181 -98q-51 -92 -49 -193v0z" />
    <glyph glyph-name="Odieresis" unicode="&#xd6;" horiz-adv-x="1630" 
d="M74 731q2 -340 207 -549q198 -213 534 -217q340 4 539 217q200 209 202 549q-2 342 -202 551q-199 211 -539 215q-336 -4 -534 -215q-205 -209 -207 -551v0zM524 731q0 123 31 203q16 41 35 71q18 29 39 50q45 45 94 63q49 14 92 14q94 3 190 -77q46 -41 74 -121
q27 -80 27 -203q0 -119 -27 -197q-28 -79 -74 -124q-43 -43 -94 -62q-53 -18 -96 -18q-92 -2 -186 80q-45 45 -74 124q-31 78 -31 197v0zM887 1574h348v267h-348v-267zM422 1574h348v267h-348v-267z" />
    <glyph glyph-name="multiply" unicode="&#xd7;" horiz-adv-x="1229" 
d="M326 8v0l288 289v0l287 -289v0l223 221l-288 289l288 291l-221 221v0l-289 -291v0l-288 289v0l-222 -221l289 -289l-289 -289z" />
    <glyph glyph-name="Oslash" unicode="&#xd8;" horiz-adv-x="1630" 
d="M555 528v0q-31 80 -31 203t31 203q16 41 35 71q18 29 39 50q45 45 94 63q49 14 92 14q47 0 102 -18q54 -20 101 -76zM1079 922v0q27 -78 27 -191q0 -119 -27 -197q-28 -79 -74 -124q-43 -43 -94 -62q-53 -18 -96 -18t-94 20q-53 19 -101 66zM1462 1526v0l-172 -189v0
q-190 158 -475 160q-336 -4 -534 -215q-205 -209 -207 -551q2 -321 186 -528l-176 -193l92 -86v0l174 193v0q184 -150 465 -152q340 4 539 217q200 209 202 549q-2 320 -178 520l178 195z" />
    <glyph glyph-name="Ugrave" unicode="&#xd9;" horiz-adv-x="1554" 
d="M1444 1462h-451v-796q0 -56 -2 -113q-4 -59 -24 -111q-19 -49 -62 -80q-45 -32 -125 -32t-125 32q-45 31 -65 80q-21 52 -25 111q-4 57 -4 113v796h-450v-897q0 -602 667 -600q666 -2 666 600v897zM717 1564h281l-205 305h-426z" />
    <glyph glyph-name="Uacute" unicode="&#xda;" horiz-adv-x="1554" 
d="M1444 1462h-451v-796q0 -56 -2 -113q-4 -59 -24 -111q-19 -49 -62 -80q-45 -32 -125 -32t-125 32q-45 31 -65 80q-21 52 -25 111q-4 57 -4 113v796h-450v-897q0 -602 667 -600q666 -2 666 600v897zM1214 1869h-428l-202 -305h278z" />
    <glyph glyph-name="Ucircumflex" unicode="&#xdb;" horiz-adv-x="1554" 
d="M1444 1462h-451v-796q0 -56 -2 -113q-4 -59 -24 -111q-19 -49 -62 -80q-45 -32 -125 -32t-125 32q-45 31 -65 80q-21 52 -25 111q-4 57 -4 113v796h-450v-897q0 -602 667 -600q666 -2 666 600v897zM371 1564h301l115 156v0l116 -156h301l-249 305h-336z" />
    <glyph glyph-name="Udieresis" unicode="&#xdc;" horiz-adv-x="1554" 
d="M1444 1462h-451v-796q0 -56 -2 -113q-4 -59 -24 -111q-19 -49 -62 -80q-45 -32 -125 -32t-125 32q-45 31 -65 80q-21 52 -25 111q-4 57 -4 113v796h-450v-897q0 -602 667 -600q666 -2 666 600v897zM846 1574h348v267h-348v-267zM381 1574h348v267h-348v-267z" />
    <glyph glyph-name="Yacute" unicode="&#xdd;" horiz-adv-x="1366" 
d="M453 0h450v539l524 923h-493l-254 -538v0l-244 538h-497l514 -923v-539zM1120 1869h-428l-202 -305h278z" />
    <glyph glyph-name="Thorn" unicode="&#xde;" horiz-adv-x="1442" 
d="M567 915h201q86 2 149 -20q62 -23 64 -121q0 -53 -19 -84q-22 -33 -57 -49q-72 -25 -164 -23h-174v297zM117 0h450v270h266q256 0 414 129t160 391q2 168 -119 330q-61 76 -164 123q-104 47 -254 47h-303v172h-450v-1462z" />
    <glyph glyph-name="germandbls" unicode="&#xdf;" horiz-adv-x="1327" 
d="M119 0h405v989q-2 80 31 131t115 53q137 0 139 -133q-2 -90 -62 -114q-57 -25 -141 -23v-225q53 0 101 -4q47 -8 79 -29q37 -20 58 -59q18 -39 18 -101q0 -75 -45 -127q-47 -57 -127 -57q-41 0 -84 12v-311q78 -14 193 -14q206 2 338 127q129 123 131 329q-2 117 -35 189
q-15 37 -37 65q-23 25 -47 43q-47 39 -86 54q-39 12 -49 10v4q16 10 45 29q28 18 57 51t49 88q21 51 21 125q-2 172 -140 282q-137 111 -387 113q-536 -12 -540 -543v-954z" />
    <glyph glyph-name="agrave" unicode="&#xe0;" horiz-adv-x="1251" 
d="M758 379q-4 -82 -51 -123q-48 -43 -119 -43q-56 0 -90 31q-37 28 -37 67q0 97 137 115q84 16 160 51v-98zM1147 674q0 78 -4 153q-11 74 -56 133q-43 60 -149 95q-107 34 -295 34q-92 0 -186 -10q-97 -14 -176 -51q-78 -35 -127 -104q-50 -70 -58 -183h377q0 37 31 74
q30 33 121 35q53 0 92 -21q39 -22 41 -77q0 -48 -33 -68q-16 -8 -35 -14q-20 -6 -43 -13q-78 -10 -178 -22t-199 -45q-94 -31 -157 -101q-66 -69 -66 -194q2 -164 113 -244q104 -78 262 -78q100 0 190 29q86 27 152 98h4q-2 -49 14 -100h414q-33 53 -41 115q-8 63 -8 123
v436zM561 1165h281l-205 305h-426z" />
    <glyph glyph-name="aacute" unicode="&#xe1;" horiz-adv-x="1251" 
d="M758 379q-4 -82 -51 -123q-48 -43 -119 -43q-56 0 -90 31q-37 28 -37 67q0 97 137 115q84 16 160 51v-98zM1147 674q0 78 -4 153q-11 74 -56 133q-43 60 -149 95q-107 34 -295 34q-92 0 -186 -10q-97 -14 -176 -51q-78 -35 -127 -104q-50 -70 -58 -183h377q0 37 31 74
q30 33 121 35q53 0 92 -21q39 -22 41 -77q0 -48 -33 -68q-16 -8 -35 -14q-20 -6 -43 -13q-78 -10 -178 -22t-199 -45q-94 -31 -157 -101q-66 -69 -66 -194q2 -164 113 -244q104 -78 262 -78q100 0 190 29q86 27 152 98h4q-2 -49 14 -100h414q-33 53 -41 115q-8 63 -8 123
v436zM1058 1470h-428l-202 -305h278z" />
    <glyph glyph-name="acircumflex" unicode="&#xe2;" horiz-adv-x="1251" 
d="M758 379q-4 -82 -51 -123q-48 -43 -119 -43q-56 0 -90 31q-37 28 -37 67q0 97 137 115q84 16 160 51v-98zM1147 674q0 78 -4 153q-11 74 -56 133q-43 60 -149 95q-107 34 -295 34q-92 0 -186 -10q-97 -14 -176 -51q-78 -35 -127 -104q-50 -70 -58 -183h377q0 37 31 74
q30 33 121 35q53 0 92 -21q39 -22 41 -77q0 -48 -33 -68q-16 -8 -35 -14q-20 -6 -43 -13q-78 -10 -178 -22t-199 -45q-94 -31 -157 -101q-66 -69 -66 -194q2 -164 113 -244q104 -78 262 -78q100 0 190 29q86 27 152 98h4q-2 -49 14 -100h414q-33 53 -41 115q-8 63 -8 123
v436zM215 1165h301l115 156v0l116 -156h301l-249 305h-336z" />
    <glyph glyph-name="atilde" unicode="&#xe3;" horiz-adv-x="1251" 
d="M758 379q-4 -82 -51 -123q-48 -43 -119 -43q-56 0 -90 31q-37 28 -37 67q0 97 137 115q84 16 160 51v-98zM1147 674q0 78 -4 153q-11 74 -56 133q-43 60 -149 95q-107 34 -295 34q-92 0 -186 -10q-97 -14 -176 -51q-78 -35 -127 -104q-50 -70 -58 -183h377q0 37 31 74
q30 33 121 35q53 0 92 -21q39 -22 41 -77q0 -48 -33 -68q-16 -8 -35 -14q-20 -6 -43 -13q-78 -10 -178 -22t-199 -45q-94 -31 -157 -101q-66 -69 -66 -194q2 -164 113 -244q104 -78 262 -78q100 0 190 29q86 27 152 98h4q-2 -49 14 -100h414q-33 53 -41 115q-8 63 -8 123
v436zM231 1165h162q6 33 29 60q22 26 55 28q59 -2 135 -37q80 -36 182 -38q115 2 177 86q59 79 61 198h-168q-10 -51 -33 -67q-24 -21 -59 -21q-16 0 -47 14q-31 11 -74 27q-41 16 -88 29q-49 12 -102 12q-129 -4 -181 -98q-51 -92 -49 -193v0z" />
    <glyph glyph-name="adieresis" unicode="&#xe4;" horiz-adv-x="1251" 
d="M758 379q-4 -82 -51 -123q-48 -43 -119 -43q-56 0 -90 31q-37 28 -37 67q0 97 137 115q84 16 160 51v-98zM1147 674q0 78 -4 153q-11 74 -56 133q-43 60 -149 95q-107 34 -295 34q-92 0 -186 -10q-97 -14 -176 -51q-78 -35 -127 -104q-50 -70 -58 -183h377q0 37 31 74
q30 33 121 35q53 0 92 -21q39 -22 41 -77q0 -48 -33 -68q-16 -8 -35 -14q-20 -6 -43 -13q-78 -10 -178 -22t-199 -45q-94 -31 -157 -101q-66 -69 -66 -194q2 -164 113 -244q104 -78 262 -78q100 0 190 29q86 27 152 98h4q-2 -49 14 -100h414q-33 53 -41 115q-8 63 -8 123
v436zM690 1175h348v267h-348v-267zM225 1175h348v267h-348v-267z" />
    <glyph glyph-name="aring" unicode="&#xe5;" horiz-adv-x="1251" 
d="M758 379q-4 -82 -51 -123q-48 -43 -119 -43q-56 0 -90 31q-37 28 -37 67q0 97 137 115q84 16 160 51v-98zM1147 674q0 78 -4 153q-11 74 -56 133q-43 60 -149 95q-107 34 -295 34q-92 0 -186 -10q-97 -14 -176 -51q-78 -35 -127 -104q-50 -70 -58 -183h377q0 37 31 74
q30 33 121 35q53 0 92 -21q39 -22 41 -77q0 -48 -33 -68q-16 -8 -35 -14q-20 -6 -43 -13q-78 -10 -178 -22t-199 -45q-94 -31 -157 -101q-66 -69 -66 -194q2 -164 113 -244q104 -78 262 -78q100 0 190 29q86 27 152 98h4q-2 -49 14 -100h414q-33 53 -41 115q-8 63 -8 123
v436zM405 1364q0 -98 70 -162q63 -70 162 -70q98 0 163 70q64 68 66 162q-2 98 -66 164q-65 63 -163 65q-95 -2 -162 -65q-70 -66 -70 -164v0zM528 1364q0 45 35 76q33 28 74 30q45 -2 75 -30q29 -31 31 -76q-2 -41 -31 -74q-30 -35 -75 -35t-74 35q-35 29 -35 74v0z" />
    <glyph glyph-name="ae" unicode="&#xe6;" horiz-adv-x="1970" 
d="M1145 651q-2 60 39 119q39 57 141 59q84 0 135 -47q47 -49 45 -131h-360zM797 399q0 -75 -43 -129q-43 -57 -134 -57q-65 0 -102 29q-39 26 -39 61q0 64 41 90q39 27 96 33q119 27 181 59v-86zM1907 440q14 264 -115 453q-133 192 -436 196q-209 3 -340 -114v0
q-80 69 -178 94l-50 12q-24 4 -49 6q-49 2 -96 2q-88 0 -178 -10q-90 -14 -170 -51q-78 -37 -127 -106q-51 -70 -55 -181h381q10 60 55 86q45 23 106 23q54 0 97 -19q43 -22 45 -79q-2 -43 -37 -64q-37 -20 -94 -31q-78 -10 -179 -20q-100 -12 -198 -45q-94 -29 -158 -96
q-65 -70 -65 -195q2 -186 118 -258q111 -72 256 -70q101 -2 242 21q139 24 266 121v0q72 -76 160 -109t246 -33q182 2 331 93q148 88 197 243h-381q-20 -26 -61 -49q-41 -27 -93 -27q-198 3 -202 207h762z" />
    <glyph glyph-name="ccedilla" unicode="&#xe7;" horiz-adv-x="1251" 
d="M807 424q-6 -64 -47 -109q-43 -47 -111 -47q-57 0 -90 25q-37 22 -55 59q-19 37 -25 84q-8 47 -8 94q0 50 8 99q6 47 25 84q18 37 55 59q33 23 90 23q66 0 103 -35q38 -35 45 -101h385q-25 222 -174 328q-152 102 -367 102q-246 -2 -405 -151q-168 -152 -170 -408
q2 -229 141 -372q133 -146 344 -176l-105 -170l54 -50q39 21 80 21q38 0 63 -18q23 -19 25 -54q0 -39 -33 -57q-33 -19 -74 -19q-45 3 -88 15q-43 14 -88 26l-43 -94q37 -12 70 -20q32 -13 65 -21q64 -16 148 -16q118 0 190 47q70 45 78 125q2 25 2 47q-2 21 -12 39
q-19 35 -50 55q-65 43 -145 41q-63 2 -86 -10l-4 4l66 102q212 9 356 123q143 115 174 326h-387z" />
    <glyph glyph-name="egrave" unicode="&#xe8;" horiz-adv-x="1290" 
d="M455 651q28 176 209 178q81 0 129 -51q47 -51 49 -127h-387zM1231 440q6 641 -604 649q-254 -4 -406 -161q-153 -160 -155 -400q2 -266 172 -409q163 -144 423 -146q187 0 334 82q148 82 213 254h-379q-24 -37 -71 -55q-47 -21 -99 -21q-96 0 -145 60q-51 57 -61 147h778
zM582 1165h281l-205 305h-426z" />
    <glyph glyph-name="eacute" unicode="&#xe9;" horiz-adv-x="1290" 
d="M455 651q28 176 209 178q81 0 129 -51q47 -51 49 -127h-387zM1231 440q6 641 -604 649q-254 -4 -406 -161q-153 -160 -155 -400q2 -266 172 -409q163 -144 423 -146q187 0 334 82q148 82 213 254h-379q-24 -37 -71 -55q-47 -21 -99 -21q-96 0 -145 60q-51 57 -61 147h778
zM1077 1470h-428l-202 -305h278z" />
    <glyph glyph-name="ecircumflex" unicode="&#xea;" horiz-adv-x="1290" 
d="M455 651q28 176 209 178q81 0 129 -51q47 -51 49 -127h-387zM1231 440q6 641 -604 649q-254 -4 -406 -161q-153 -160 -155 -400q2 -266 172 -409q163 -144 423 -146q187 0 334 82q148 82 213 254h-379q-24 -37 -71 -55q-47 -21 -99 -21q-96 0 -145 60q-51 57 -61 147h778
zM236 1165h301l115 156v0l116 -156h301l-249 305h-336z" />
    <glyph glyph-name="edieresis" unicode="&#xeb;" horiz-adv-x="1290" 
d="M455 651q28 176 209 178q81 0 129 -51q47 -51 49 -127h-387zM1231 440q6 641 -604 649q-254 -4 -406 -161q-153 -160 -155 -400q2 -266 172 -409q163 -144 423 -146q187 0 334 82q148 82 213 254h-379q-24 -37 -71 -55q-47 -21 -99 -21q-96 0 -145 60q-51 57 -61 147h778
zM711 1175h348v267h-348v-267zM246 1175h348v267h-348v-267z" />
    <glyph glyph-name="igrave" unicode="&#xec;" horiz-adv-x="645" 
d="M524 0v1063h-405v-1063h405zM248 1165h281l-205 305h-426z" />
    <glyph glyph-name="iacute" unicode="&#xed;" horiz-adv-x="645" 
d="M524 0v1063h-405v-1063h405zM743 1470h-428l-202 -305h278z" />
    <glyph glyph-name="icircumflex" unicode="&#xee;" horiz-adv-x="645" 
d="M524 0v1063h-405v-1063h405zM-98 1165h301l115 156v0l116 -156h301l-249 305h-336z" />
    <glyph glyph-name="idieresis" unicode="&#xef;" horiz-adv-x="645" 
d="M524 0v1063h-405v-1063h405zM377 1175h348v267h-348v-267zM-88 1175h348v267h-348v-267z" />
    <glyph glyph-name="eth" unicode="&#xf0;" horiz-adv-x="1290" 
d="M643 268q-174 2 -172 248q-2 238 172 238q176 0 176 -238q0 -246 -176 -248v0zM922 1595v0l-222 -121q-59 33 -143 95v0l-291 -168q84 -51 117 -90l-166 -90l148 -160v0l204 108v0q45 -26 97 -77q49 -54 84 -105l-5 -4q-59 25 -108 29q-49 2 -86 2q-64 0 -146 -21
q-81 -24 -159 -82q-76 -57 -127 -155q-53 -99 -53 -248q4 -524 577 -535q174 2 291 62q112 57 176 151q63 95 90 207q25 111 25 217q-2 226 -97 402q-94 174 -254 317l203 109z" />
    <glyph glyph-name="ntilde" unicode="&#xf1;" horiz-adv-x="1327" 
d="M111 0h405v561q0 64 16 107q17 41 41 61q50 39 105 37q88 0 112 -57q23 -58 21 -152v-557h405v729q-2 184 -108 272q-107 88 -256 88q-238 0 -346 -161h-4v135h-391v-1063zM270 1165h162q6 33 29 60q22 26 55 28q59 -2 135 -37q80 -36 182 -38q115 2 177 86q59 79 61 198
h-168q-10 -51 -33 -67q-24 -21 -59 -21q-16 0 -47 14q-31 11 -74 27q-41 16 -88 29q-49 12 -102 12q-129 -4 -181 -98q-51 -92 -49 -193v0z" />
    <glyph glyph-name="ograve" unicode="&#xf2;" horiz-adv-x="1290" 
d="M1225 532q0 230 -140 390q-139 163 -440 167q-297 -4 -438 -167q-144 -160 -141 -390q-3 -227 141 -389q141 -166 438 -170q301 4 440 170q140 162 140 389v0zM819 532q2 -88 -29 -172q-18 -41 -51 -65q-37 -27 -94 -27q-55 0 -88 27q-37 24 -55 65q-17 41 -23 86
q-8 45 -8 86q-2 93 31 175q18 40 55 65q33 23 88 23q57 0 94 -23q33 -25 51 -65q19 -37 25 -84q4 -48 4 -91v0zM577 1165h281l-205 305h-426z" />
    <glyph glyph-name="oacute" unicode="&#xf3;" horiz-adv-x="1290" 
d="M1225 532q0 230 -140 390q-139 163 -440 167q-297 -4 -438 -167q-144 -160 -141 -390q-3 -227 141 -389q141 -166 438 -170q301 4 440 170q140 162 140 389v0zM819 532q2 -88 -29 -172q-18 -41 -51 -65q-37 -27 -94 -27q-55 0 -88 27q-37 24 -55 65q-17 41 -23 86
q-8 45 -8 86q-2 93 31 175q18 40 55 65q33 23 88 23q57 0 94 -23q33 -25 51 -65q19 -37 25 -84q4 -48 4 -91v0zM1075 1470h-428l-202 -305h278z" />
    <glyph glyph-name="ocircumflex" unicode="&#xf4;" horiz-adv-x="1290" 
d="M1225 532q0 230 -140 390q-139 163 -440 167q-297 -4 -438 -167q-144 -160 -141 -390q-3 -227 141 -389q141 -166 438 -170q301 4 440 170q140 162 140 389v0zM819 532q2 -88 -29 -172q-18 -41 -51 -65q-37 -27 -94 -27q-55 0 -88 27q-37 24 -55 65q-17 41 -23 86
q-8 45 -8 86q-2 93 31 175q18 40 55 65q33 23 88 23q57 0 94 -23q33 -25 51 -65q19 -37 25 -84q4 -48 4 -91v0zM231 1165h301l115 156v0l116 -156h301l-249 305h-336z" />
    <glyph glyph-name="otilde" unicode="&#xf5;" horiz-adv-x="1290" 
d="M1225 532q0 230 -140 390q-139 163 -440 167q-297 -4 -438 -167q-144 -160 -141 -390q-3 -227 141 -389q141 -166 438 -170q301 4 440 170q140 162 140 389v0zM819 532q2 -88 -29 -172q-18 -41 -51 -65q-37 -27 -94 -27q-55 0 -88 27q-37 24 -55 65q-17 41 -23 86
q-8 45 -8 86q-2 93 31 175q18 40 55 65q33 23 88 23q57 0 94 -23q33 -25 51 -65q19 -37 25 -84q4 -48 4 -91v0zM248 1165h162q6 33 29 60q22 26 55 28q59 -2 135 -37q80 -36 182 -38q115 2 177 86q59 79 61 198h-168q-10 -51 -33 -67q-24 -21 -59 -21q-16 0 -47 14
q-31 11 -74 27q-41 16 -88 29q-49 12 -102 12q-129 -4 -181 -98q-51 -92 -49 -193v0z" />
    <glyph glyph-name="odieresis" unicode="&#xf6;" horiz-adv-x="1290" 
d="M1225 532q0 230 -140 390q-139 163 -440 167q-297 -4 -438 -167q-144 -160 -141 -390q-3 -227 141 -389q141 -166 438 -170q301 4 440 170q140 162 140 389v0zM819 532q2 -88 -29 -172q-18 -41 -51 -65q-37 -27 -94 -27q-55 0 -88 27q-37 24 -55 65q-17 41 -23 86
q-8 45 -8 86q-2 93 31 175q18 40 55 65q33 23 88 23q57 0 94 -23q33 -25 51 -65q19 -37 25 -84q4 -48 4 -91v0zM706 1175h348v267h-348v-267zM241 1175h348v267h-348v-267z" />
    <glyph glyph-name="divide" unicode="&#xf7;" horiz-adv-x="1229" 
d="M98 360h1034v314h-1034v-314zM616 733q91 2 148 62q57 57 59 145q-2 88 -59 149q-57 58 -148 60q-88 -2 -145 -60q-59 -61 -61 -149q2 -88 61 -145q57 -60 145 -62v0zM616 301q-88 -2 -145 -59q-59 -58 -61 -148q2 -88 61 -145q57 -58 145 -64q91 6 148 64q57 57 59 145
q-2 90 -59 148q-57 57 -148 59v0z" />
    <glyph glyph-name="oslash" unicode="&#xf8;" horiz-adv-x="1290" 
d="M809 643v0q10 -57 10 -111q2 -88 -29 -172q-18 -41 -51 -65q-37 -27 -94 -27q-82 0 -117 49zM483 414v0q-14 57 -12 118q-2 93 31 175q18 40 55 65q33 23 88 23q86 -2 121 -54zM1094 1118v0l-103 -119v0q-135 88 -346 90q-297 -4 -438 -167q-144 -160 -141 -390
q-3 -245 161 -411l-108 -125l73 -68v0l113 131v0q131 -84 340 -86q301 4 440 170q140 162 140 389q0 244 -158 408l98 115z" />
    <glyph glyph-name="ugrave" unicode="&#xf9;" horiz-adv-x="1327" 
d="M1216 1063h-405v-561q0 -62 -12 -101q-17 -43 -41 -63q-54 -43 -109 -41q-86 0 -110 59q-25 58 -23 150v557h-405v-729q2 -180 112 -271q107 -90 252 -90q238 2 346 162h4v-135h391v1063zM598 1165h281l-205 305h-426z" />
    <glyph glyph-name="uacute" unicode="&#xfa;" horiz-adv-x="1327" 
d="M1216 1063h-405v-561q0 -62 -12 -101q-17 -43 -41 -63q-54 -43 -109 -41q-86 0 -110 59q-25 58 -23 150v557h-405v-729q2 -180 112 -271q107 -90 252 -90q238 2 346 162h4v-135h391v1063zM1093 1470h-428l-202 -305h278z" />
    <glyph glyph-name="ucircumflex" unicode="&#xfb;" horiz-adv-x="1327" 
d="M1216 1063h-405v-561q0 -62 -12 -101q-17 -43 -41 -63q-54 -43 -109 -41q-86 0 -110 59q-25 58 -23 150v557h-405v-729q2 -180 112 -271q107 -90 252 -90q238 2 346 162h4v-135h391v1063zM252 1165h301l115 156v0l116 -156h301l-249 305h-336z" />
    <glyph glyph-name="udieresis" unicode="&#xfc;" horiz-adv-x="1327" 
d="M1216 1063h-405v-561q0 -62 -12 -101q-17 -43 -41 -63q-54 -43 -109 -41q-86 0 -110 59q-25 58 -23 150v557h-405v-729q2 -180 112 -271q107 -90 252 -90q238 2 346 162h4v-135h391v1063zM727 1175h348v267h-348v-267zM262 1175h348v267h-348v-267z" />
    <glyph glyph-name="yacute" unicode="&#xfd;" horiz-adv-x="1139" 
d="M1169 1063h-419l-173 -610h-4l-170 610h-434l180 -490q29 -67 99 -254q33 -86 57 -155q23 -70 23 -94q0 -33 -9 -52q-12 -20 -30 -28q-23 -8 -56 -8q-34 -2 -67 -2h-94v-324h184q121 -2 233 16q113 21 195 115q47 64 80 143q31 80 53 152zM1001 1470h-428l-202 -305h278z
" />
    <glyph glyph-name="thorn" unicode="&#xfe;" horiz-adv-x="1327" 
d="M502 530q0 50 8 99q8 47 27 84q38 80 143 82q55 0 92 -23q35 -22 53 -59q33 -82 33 -183q0 -96 -33 -176q-18 -37 -53 -59q-37 -27 -92 -27q-105 2 -143 86q-19 37 -27 84t-8 92v0zM111 -344h405v461h4q100 -142 291 -144q262 7 362 185q52 84 72 184q19 98 19 195
q0 96 -19 192q-20 96 -72 178q-51 82 -139 133q-88 47 -223 49q-191 -2 -291 -143h-4v516h-405v-1806z" />
    <glyph glyph-name="ydieresis" unicode="&#xff;" horiz-adv-x="1139" 
d="M1169 1063h-419l-173 -610h-4l-170 610h-434l180 -490q29 -67 99 -254q33 -86 57 -155q23 -70 23 -94q0 -33 -9 -52q-12 -20 -30 -28q-23 -8 -56 -8q-34 -2 -67 -2h-94v-324h184q121 -2 233 16q113 21 195 115q47 64 80 143q31 80 53 152zM637 1175h348v267h-348v-267z
M172 1175h348v267h-348v-267z" />
    <glyph glyph-name="FL266" unicode="&#xe001;" horiz-adv-x="0" 
 />
    <glyph glyph-name="hyphen" horiz-adv-x="833" 
d="M96 379h641v336h-641v-336z" />
    <glyph glyph-name="fraction" unicode="&#xe002;" horiz-adv-x="342" 
d="M-338 -53h225l795 1532h-225z" />
    <glyph glyph-name="fi" unicode="&#xe003;" horiz-adv-x="1442" 
d="M915 0h406v1063h-406v-1063zM1321 1462h-406v-284h406v284zM178 0h406v813h204v250h-213q-4 74 25 102q27 25 100 25q25 0 50 -4q24 -6 49 -11v279q-90 6 -183 8q-120 0 -204 -16q-84 -19 -150 -84q-55 -60 -72 -137q-16 -80 -12 -162h-166v-250h166v-813z" />
    <glyph glyph-name="fl" unicode="&#xe004;" horiz-adv-x="1442" 
d="M915 0h406v1462h-406v-1462zM178 0h406v813h204v250h-213q-4 74 25 102q27 25 100 25q50 0 99 -15v279q-90 6 -183 8q-120 0 -204 -16q-84 -19 -150 -84q-55 -60 -72 -137q-16 -80 -12 -162h-166v-250h166v-813z" />
    <glyph glyph-name="Lslash" unicode="&#xe005;" horiz-adv-x="1290" 
d="M117 412v-412h1097v375h-647v346l375 258v266v0l-375 -258v0v475h-450v-784l-168 -117v-266v0l168 117v0z" />
    <glyph glyph-name="lslash" unicode="&#xe006;" horiz-adv-x="645" 
d="M119 543v-543h405v856l123 94v209v0l-123 -94v0v397h-405v-710l-123 -95v-209v0l123 95v0z" />
    <glyph glyph-name="minus" unicode="&#xe007;" horiz-adv-x="1229" 
d="M98 360h1034v314h-1034v-314z" />
    <glyph glyph-name="FL0" unicode="&#xe000;" horiz-adv-x="0" 
 />
    </font>
</defs>
</svg>
